<svg height="512" viewBox="0 0 128 128" width="512" xmlns="http://www.w3.org/2000/svg"><g><path d="m19.752 84.791c2.152 0 4.68.142 7.358.291l1.792.1h.094a1.75 1.75 0 0 0 .09-3.5l-1.782-.1c-2.727-.152-5.3-.3-7.552-.3a1.75 1.75 0 1 0 0 3.5z"/><path d="m119.724 28.713a7.71 7.71 0 0 0 -2.941-4.12 45.012 45.012 0 0 1 3.3-13.3 4.747 4.747 0 0 0 -4.4-6.546h-11.023a1.75 1.75 0 0 0 -1.743 1.9l1.644 18.71a7.6 7.6 0 0 0 -1.925 3.783 53.969 53.969 0 0 1 -6.1 16.544c-5.733 7.463-14.143 14.6-25.713 21.826-15.435 9.636-30.823 8.777-43.185 8.09-9.4-.526-16.824-.939-20.649 3.884a9.975 9.975 0 0 0 -2.073 8.106c.894 5.152 5.7 10.952 12.909 15.67a10.541 10.541 0 0 0 1.765 6.784c5.055 7.9 19.844 13.206 30.486 13.206 14.306 0 38.029-8.536 56.311-27.278 16.237-16.647 20.973-40.533 13.337-67.259zm-13.154-20.463h9.12a1.241 1.241 0 0 1 1.043.558 1.223 1.223 0 0 1 .118 1.158 49.324 49.324 0 0 0 -3.451 13.251c-.145-.022-.285-.06-.432-.073l-2.039-.185a7.848 7.848 0 0 0 -3.037.326zm-98.206 78.741a6.4 6.4 0 0 1 1.367-5.334c2.7-3.4 9.324-3.034 17.711-2.565 12.18.679 28.858 1.61 45.235-8.608a140.6 140.6 0 0 0 12.67-8.824c-3.023 3.639-6.574 7.576-10.772 11.866-12.715 13-26.718 15.682-37.969 17.842-8.45 1.622-15.136 2.914-17.777 8.351-5.829-4.019-9.779-8.779-10.465-12.728zm95.517 6.537c-17.573 18.016-40.21 26.222-53.8 26.222-9.516 0-23.166-4.761-27.537-11.592a6.66 6.66 0 0 1 -.624-6.8c1.826-3.957 7.5-5.045 15.351-6.552 11.106-2.133 26.329-5.054 39.806-18.832 10.274-10.5 17.486-19.581 22.273-28.2a1.733 1.733 0 0 0 .228-.417 59.74 59.74 0 0 0 6.495-17.549 4.109 4.109 0 0 1 1.372-2.351c.042-.033.08-.07.119-.106a4.25 4.25 0 0 1 2.651-.922c.132 0 .264.006.4.018l2.04.185a4.264 4.264 0 0 1 3.7 3.045c7.28 25.466 2.845 48.142-12.474 63.851z"/><path d="m105.843 61.185a1.754 1.754 0 0 0 -2.056 1.378 39.884 39.884 0 0 1 -10.643 20.492c-15.417 15.8-34.6 21.695-43.068 21.695a1.75 1.75 0 1 0 0 3.5c9.039 0 29.4-6.177 45.573-22.752a43.325 43.325 0 0 0 11.572-22.258 1.75 1.75 0 0 0 -1.378-2.055z"/></g></svg>