<?xml version="1.0"?>
<svg xmlns="http://www.w3.org/2000/svg" width="512" height="512" viewBox="0 0 128 128"><g><path d="M120.579,111.09a7.6,7.6,0,0,1,.846-3.721,12.1,12.1,0,0,0,0-10.315,8.6,8.6,0,0,1,0-7.437,12.1,12.1,0,0,0,0-10.312,8.589,8.589,0,0,1,0-7.434,12.089,12.089,0,0,0,0-10.309,8.586,8.586,0,0,1,0-7.433,10.988,10.988,0,0,0,1.154-5.154,11,11,0,0,0-1.154-5.156,7.59,7.59,0,0,1-.846-3.716,6.774,6.774,0,0,1,1.306-3.58c1.026-1.711,2.432-4.054.1-7-2.234-2.822-4.879-1.148-6.3-.25a5.774,5.774,0,0,1-2.882,1.207,4.493,4.493,0,0,1-2.646-.771,8.409,8.409,0,0,0-8.754,0,4.911,4.911,0,0,1-5.282,0,8.4,8.4,0,0,0-8.748,0,5.222,5.222,0,0,1-1.515.659,14.356,14.356,0,0,1-2.876-3.133,14.323,14.323,0,0,1-1.225-4c-.491-2.325-1.049-4.96-2.905-6.816s-4.482-2.4-6.8-2.889a14.333,14.333,0,0,1-4-1.225,14.941,14.941,0,0,1-3.207-2.969c-1.641-1.817-3.336-3.7-5.77-4.348-2.467-.658-4.893.13-7.239.893a14.677,14.677,0,0,1-4.192.958,14.628,14.628,0,0,1-4.179-.957c-2.345-.763-4.769-1.553-7.243-.893-2.433.651-4.132,2.53-5.776,4.348a15,15,0,0,1-3.208,2.967,14.338,14.338,0,0,1-4.006,1.226c-2.321.49-4.952,1.045-6.808,2.894s-2.4,4.483-2.889,6.8a14.356,14.356,0,0,1-1.224,4,15.028,15.028,0,0,1-2.969,3.211c-1.817,1.644-3.7,3.343-4.35,5.777-.658,2.47.131,4.9.895,7.241a14.641,14.641,0,0,1,.957,4.18,14.669,14.669,0,0,1-.958,4.192c-.763,2.345-1.552,4.77-.893,7.241.652,2.432,2.531,4.128,4.349,5.768a15.012,15.012,0,0,1,2.967,3.2,14.349,14.349,0,0,1,1.226,4.006c.49,2.322,1.045,4.953,2.892,6.806s4.487,2.411,6.811,2.9a14.329,14.329,0,0,1,4,1.226,14.919,14.919,0,0,1,3.212,2.964c1.642,1.814,3.339,3.69,5.771,4.341a7.459,7.459,0,0,0,1.935.246A17.43,17.43,0,0,0,43.46,89.4a15.029,15.029,0,0,1,4.108-.95c.16.431.332.822.5,1.191a8.584,8.584,0,0,1,0,7.432,12.091,12.091,0,0,0,0,10.31,7.591,7.591,0,0,1,.846,3.717,6.777,6.777,0,0,1-1.306,3.58c-1.026,1.711-2.432,4.054-.1,7a3.589,3.589,0,0,0,2.874,1.568,6.741,6.741,0,0,0,3.423-1.319,5.774,5.774,0,0,1,2.883-1.207,4.49,4.49,0,0,1,2.645.771,8.409,8.409,0,0,0,8.754,0,4.911,4.911,0,0,1,5.282,0,8.4,8.4,0,0,0,8.748,0,4.911,4.911,0,0,1,5.282,0,8.4,8.4,0,0,0,8.749,0,4.91,4.91,0,0,1,5.281,0,8.39,8.39,0,0,0,8.747,0,4.476,4.476,0,0,1,2.638-.77,5.771,5.771,0,0,1,2.88,1.206c1.42.9,4.061,2.575,6.294-.251,2.33-2.948.925-5.291-.1-7A6.777,6.777,0,0,1,120.579,111.09Zm-78.2-25.021c-1.947.633-3.787,1.231-5.255.841-1.432-.384-2.718-1.8-4.078-3.308a17.669,17.669,0,0,0-4.058-3.647,16.975,16.975,0,0,0-5.027-1.62c-2.027-.429-3.942-.834-5.059-1.95s-1.517-3.031-1.945-5.057a16.944,16.944,0,0,0-1.621-5.036,17.722,17.722,0,0,0-3.651-4.05c-1.507-1.359-2.929-2.642-3.312-4.073-.392-1.469.206-3.308.839-5.255a17.319,17.319,0,0,0,1.13-5.274,17.3,17.3,0,0,0-1.129-5.263c-.634-1.947-1.232-3.786-.841-5.254.384-1.435,1.808-2.722,3.315-4.084a17.722,17.722,0,0,0,3.651-4.054,16.952,16.952,0,0,0,1.619-5.033c.428-2.026.832-3.939,1.941-5.052s3.03-1.517,5.055-1.944a16.944,16.944,0,0,0,5.037-1.623,17.688,17.688,0,0,0,4.051-3.648c1.362-1.507,2.649-2.931,4.082-3.314,1.475-.392,3.31.207,5.256.84A17.292,17.292,0,0,0,47.64,10.34a17.319,17.319,0,0,0,5.274-1.13c1.946-.633,3.784-1.231,5.254-.839,1.432.383,2.715,1.8,4.074,3.311a17.678,17.678,0,0,0,4.052,3.653,16.977,16.977,0,0,0,5.035,1.621c2.025.427,3.939.831,5.054,1.941s1.523,3.035,1.953,5.063a17.927,17.927,0,0,0,1.493,4.765,8.5,8.5,0,0,0-2.11-.246,7.859,7.859,0,0,0-4.374,1.23,4.91,4.91,0,0,1-5.281,0,8.393,8.393,0,0,0-8.747,0,4.476,4.476,0,0,1-2.638.77A5.772,5.772,0,0,1,53.8,29.273c-1.42-.9-4.065-2.573-6.295.251-2.466,3.121-1.242,5.229-.162,7.089a12.827,12.827,0,0,1,1.59,3.669,4.179,4.179,0,0,1-.6,3.584,9.856,9.856,0,0,0-1.417,5.122,11,11,0,0,0,1.154,5.157,8.6,8.6,0,0,1,0,7.437,12.1,12.1,0,0,0,0,10.312,8.589,8.589,0,0,1,0,7.434,10.988,10.988,0,0,0-1.154,5.154c0,.181.01.341.015.51A20,20,0,0,0,42.377,86.069Zm75.856-40.811a8.586,8.586,0,0,1,0,7.433,12.089,12.089,0,0,0,0,10.309,8.586,8.586,0,0,1,0,7.433,12.091,12.091,0,0,0,0,10.31,8.593,8.593,0,0,1,0,7.436,12.1,12.1,0,0,0,0,10.314,8.6,8.6,0,0,1,0,7.438,11.008,11.008,0,0,0-1.154,5.159,9.955,9.955,0,0,0,1.805,5.383c1.023,1.706,1.131,2.051.356,3.031-.13.165-.215.229-.217.244a6.161,6.161,0,0,1-1.457-.779,8.74,8.74,0,0,0-4.754-1.75,7.861,7.861,0,0,0-4.373,1.23,4.907,4.907,0,0,1-5.278,0,8.394,8.394,0,0,0-8.749,0,4.911,4.911,0,0,1-5.28,0,8.4,8.4,0,0,0-8.75,0,4.911,4.911,0,0,1-5.28,0,8.394,8.394,0,0,0-8.749,0,4.925,4.925,0,0,1-5.29,0,7.88,7.88,0,0,0-4.377-1.229,8.744,8.744,0,0,0-4.756,1.751,7.708,7.708,0,0,1-1.419.793.978.978,0,0,1-.261-.259c-.773-.977-.665-1.322.357-3.027a9.951,9.951,0,0,0,1.8-5.381,10.992,10.992,0,0,0-1.154-5.155,8.586,8.586,0,0,1,0-7.433,12.089,12.089,0,0,0,0-10.309,9.007,9.007,0,0,1-.655-1.8l-.006-.027a8.539,8.539,0,0,1-.185-1.892,7.587,7.587,0,0,1,.846-3.716,12.091,12.091,0,0,0,0-10.31,8.593,8.593,0,0,1,0-7.436,12.1,12.1,0,0,0,0-10.314,7.593,7.593,0,0,1-.846-3.718,6.487,6.487,0,0,1,1.005-3.473,7.589,7.589,0,0,0,.922-6.041,16.209,16.209,0,0,0-1.97-4.618c-.981-1.692-1.108-1.909-.118-3.162.13-.164.215-.229.217-.243a6.191,6.191,0,0,1,1.458.778,8.743,8.743,0,0,0,4.753,1.75,7.858,7.858,0,0,0,4.373-1.23,4.907,4.907,0,0,1,5.278,0,8.394,8.394,0,0,0,8.749,0,4.908,4.908,0,0,1,5.28,0,7.874,7.874,0,0,0,4.374,1.229c.212,0,.405-.011.6-.023l.075,0a7.864,7.864,0,0,0,3.7-1.2,4.912,4.912,0,0,1,5.281,0,8.4,8.4,0,0,0,8.749,0,4.921,4.921,0,0,1,5.289,0,7.881,7.881,0,0,0,4.378,1.229,8.75,8.75,0,0,0,4.756-1.75,7.675,7.675,0,0,1,1.418-.793.958.958,0,0,1,.261.258c.774.978.665,1.323-.357,3.028a9.951,9.951,0,0,0-1.805,5.381A10.992,10.992,0,0,0,118.233,45.258Z"/><circle cx="35.917" cy="68.824" r="2"/><path d="M41.084,60.829a2,2,0,1,0,2.828,0A2,2,0,0,0,41.084,60.829Z"/><circle cx="26.459" cy="59.367" r="2"/><circle cx="33.041" cy="52.785" r="2"/><circle cx="39.622" cy="46.204" r="2"/><circle cx="46.204" cy="39.622" r="2"/><circle cx="59.367" cy="26.459" r="2"/><path d="M25,41.913a2,2,0,1,0,0,2.829A2,2,0,0,0,25,41.913Z"/><circle cx="30.165" cy="36.746" r="2"/><circle cx="36.746" cy="30.165" r="2"/><circle cx="43.328" cy="23.583" r="2"/><circle cx="104.722" cy="108.176" r="2"/><circle cx="104.722" cy="98.869" r="2"/><circle cx="104.722" cy="89.561" r="2"/><circle cx="104.722" cy="80.253" r="2"/><circle cx="104.722" cy="70.945" r="2"/><circle cx="104.722" cy="61.638" r="2"/><circle cx="104.722" cy="52.33" r="2"/><circle cx="104.722" cy="43.022" r="2"/><circle cx="91.347" cy="108.176" r="2"/><circle cx="91.347" cy="98.869" r="2"/><circle cx="91.347" cy="89.561" r="2"/><circle cx="91.347" cy="80.253" r="2"/><circle cx="91.347" cy="70.945" r="2"/><circle cx="91.347" cy="61.638" r="2"/><circle cx="91.347" cy="52.33" r="2"/><circle cx="91.347" cy="43.022" r="2"/><circle cx="77.972" cy="108.176" r="2"/><circle cx="77.972" cy="98.869" r="2"/><circle cx="77.972" cy="89.561" r="2"/><circle cx="77.972" cy="80.253" r="2"/><circle cx="77.972" cy="70.945" r="2"/><circle cx="77.972" cy="61.638" r="2"/><circle cx="77.972" cy="52.33" r="2"/><circle cx="77.972" cy="43.022" r="2"/><circle cx="64.597" cy="108.176" r="2"/><circle cx="64.597" cy="98.869" r="2"/><circle cx="64.597" cy="89.561" r="2"/><circle cx="64.597" cy="80.253" r="2"/><circle cx="64.597" cy="70.945" r="2"/><circle cx="64.597" cy="61.638" r="2"/><circle cx="64.597" cy="52.33" r="2"/><circle cx="64.597" cy="43.022" r="2"/></g></svg>
