<svg height="512" viewBox="0 0 128 128" width="512" xmlns="http://www.w3.org/2000/svg"><g><path d="m120.106 9.6c-7.754-7.756-28.889-6.068-50.245 4.011l-.119.054c-3.032 1.451-6.016 3.032-8.871 4.7l-1.246.728a121.135 121.135 0 0 0 -19.776 14.887l-.059.061c-.98.923-1.961 1.865-2.922 2.827-1.668 1.664-3.321 3.432-4.907 5.232-.377.415-.744.84-1.1 1.253a118.4 118.4 0 0 0 -14.071 20.27c-.085.144-.163.289-.239.431l-.158.291c-1.548 2.893-2.947 5.775-4.141 8.525-.2.426-.384.864-.568 1.3l-.155.365c-8.222 19.746-9.016 38.487-1.929 45.571a10.856 10.856 0 0 0 8.022 3.173c5.249 0 12.018-2.773 20.43-8.342 10.788-7.144 24.248-18.837 41.148-35.737s28.591-30.364 35.734-41.155c9.015-13.61 10.706-22.917 5.172-28.445zm-50.006 7.8c2.7 2.948 5.218 5.864 7.525 8.72-3.513-2.061-7.606-4.226-12.045-6.374q2.227-1.218 4.52-2.346zm-30.757 21.942c.567-.567 1.16-1.127 1.745-1.688 4.48 4.29 8.595 8.534 12.3 12.686-4.827-2.524-10.713-5.191-17.137-7.761 1.023-1.108 2.049-2.198 3.092-3.237zm-20.37 27.62c3.3 2.027 7.353 4.653 11.617 7.738a142.512 142.512 0 0 0 -14.19-2.533c.8-1.72 1.661-3.467 2.573-5.205zm57.756 9.766c-16.729 16.734-30.019 28.277-40.612 35.291-11.843 7.838-19.933 9.726-24.046 5.612-5.155-5.155-5.887-21.153 2.682-41.739l.152-.357.016-.037c10.087 1.262 18.9 3.252 23.759 5.392a1.75 1.75 0 0 0 1.82-2.95 177.432 177.432 0 0 0 -19.839-14.051 115 115 0 0 1 12.853-18.255c.079-.092.168-.19.249-.284 11.654 4.594 21.563 9.523 26.647 13.28a1.752 1.752 0 0 0 2.42-2.49 204.944 204.944 0 0 0 -19.178-20.882 117.533 117.533 0 0 1 17.767-13.167l.417-.244c9.81 4.594 18.123 9.381 22.354 12.873a1.722 1.722 0 0 0 1.11.4 1.748 1.748 0 0 0 1.44-2.75 172.493 172.493 0 0 0 -13.34-16.536c11.753-5.247 22.565-7.534 30.752-7.534 6.314 0 11.067 1.362 13.48 3.775 7.881 7.876-5.881 29.63-40.903 64.653z"/><path d="m101.519 43.291a1.751 1.751 0 0 0 -2.461.262c-1.622 2.01-3.4 4.133-5.287 6.31a1.75 1.75 0 1 0 2.645 2.292c1.913-2.208 3.718-4.363 5.365-6.4a1.749 1.749 0 0 0 -.262-2.464z"/></g></svg>