<?xml version="1.0"?>
<svg xmlns="http://www.w3.org/2000/svg" width="512" height="512" viewBox="0 0 128 128"><g><path d="M121.493,57.236a12.759,12.759,0,0,0-4.036-14.3,10.382,10.382,0,0,0-10.317-9.11,10.034,10.034,0,0,0-1.871.179,10.268,10.268,0,0,0-5.633-2.458,20.169,20.169,0,0,0-6.371-8.24A16.144,16.144,0,0,0,73.7,9.056a16.154,16.154,0,0,0-21.6-.325c-.448-.039-.86-.057-1.264-.057a16.143,16.143,0,0,0-16.1,14.637,20.169,20.169,0,0,0-6.371,8.24,10.268,10.268,0,0,0-5.633,2.458,10.034,10.034,0,0,0-1.871-.179,10.382,10.382,0,0,0-10.317,9.11,12.759,12.759,0,0,0-4.036,14.3A10.407,10.407,0,0,0,15.16,73.43l.206,0A10.512,10.512,0,0,0,22,74.909c4.722,7.5,13.4,12.815,21.1,17.525a101.57,101.57,0,0,1,10.343,6.875,4.242,4.242,0,0,1,1.53,3.668l-1.62,18.37a1.75,1.75,0,0,0,1.743,1.9H72.9a1.75,1.75,0,0,0,1.743-1.9l-1.62-18.367a4.241,4.241,0,0,1,1.525-3.667A101.558,101.558,0,0,1,84.9,92.434c7.7-4.706,16.366-10.018,21.091-17.5a10.211,10.211,0,0,0,6.647-1.5l.206,0a10.407,10.407,0,0,0,8.653-16.194ZM37.426,25.68a1.75,1.75,0,0,0,.747-1.361A12.653,12.653,0,0,1,50.836,12.174a12.8,12.8,0,0,1,1.64.119,1.768,1.768,0,0,0,1.438-.477,12.655,12.655,0,0,1,17.992.385,1.754,1.754,0,0,0,1.75.475A12.653,12.653,0,0,1,89.827,24.319a1.75,1.75,0,0,0,.747,1.361A16.635,16.635,0,0,1,97.7,39.31a16.464,16.464,0,0,1-1.523,6.916,1.751,1.751,0,0,0,.246,1.85,12.691,12.691,0,0,1-9.756,20.81c-.344,0-.681-.026-1.018-.052a1.7,1.7,0,0,0-1.152.317,12.75,12.75,0,0,1-13.119.945,1.744,1.744,0,0,0-1.6,0,12.662,12.662,0,0,1-11.564,0,1.748,1.748,0,0,0-1.6,0A12.746,12.746,0,0,1,43.5,69.151a1.719,1.719,0,0,0-1.152-.317c-.337.026-.674.052-1.018.052a12.691,12.691,0,0,1-9.756-20.81,1.751,1.751,0,0,0,.246-1.85A16.464,16.464,0,0,1,30.3,39.31,16.635,16.635,0,0,1,37.426,25.68ZM71.75,74.046a15.955,15.955,0,0,0,12.557-.724,10.455,10.455,0,0,0,1.559.106,10.328,10.328,0,0,0,2.589,1.13,77.148,77.148,0,0,1-16.7,10.327Zm-29.616-.618a10.318,10.318,0,0,0,1.56-.105,15.958,15.958,0,0,0,12.556.723V84.885A77.135,77.135,0,0,1,39.566,74.574,10.5,10.5,0,0,0,42.134,73.428ZM15.7,69.906c-.181.016-.361.024-.542.024A6.907,6.907,0,0,1,9.844,58.61a1.748,1.748,0,0,0,.248-1.847,9.258,9.258,0,0,1,3.13-11.458,1.752,1.752,0,0,0,.747-1.359,6.859,6.859,0,0,1,8.8-6.336,1.746,1.746,0,0,0,1.754-.474A6.856,6.856,0,0,1,27.191,35.4a19.831,19.831,0,0,0,1.025,11.3,16.172,16.172,0,0,0,7.718,24.745,6.746,6.746,0,0,1-2.43-.707,1.755,1.755,0,0,0-1.6,0,6.876,6.876,0,0,1-6.3,0,1.755,1.755,0,0,0-1.6,0,6.935,6.935,0,0,1-7.138-.515A1.755,1.755,0,0,0,15.7,69.906ZM83.07,89.447a103.865,103.865,0,0,0-10.723,7.145,7.74,7.74,0,0,0-2.81,6.691l1.452,16.467H57.011l1.453-16.471a7.744,7.744,0,0,0-2.817-6.692,103.908,103.908,0,0,0-10.717-7.14C38.139,85.3,30.555,80.655,26.047,74.63a10.374,10.374,0,0,0,6.652-.413,10.358,10.358,0,0,0,1.66.516A76.247,76.247,0,0,0,57.417,89.149a1.724,1.724,0,0,0,.583.1,1.75,1.75,0,0,0,1.75-1.75V74.4a16.17,16.17,0,0,0,8.5,0V87.5A1.75,1.75,0,0,0,70,89.25a1.724,1.724,0,0,0,.583-.1A76.25,76.25,0,0,0,93.66,74.716a10.076,10.076,0,0,0,1.641-.5,10.374,10.374,0,0,0,6.652.413C97.445,80.655,89.861,85.3,83.07,89.447ZM112.84,69.93c-.181,0-.361-.008-.542-.024a1.769,1.769,0,0,0-1.156.314,6.931,6.931,0,0,1-7.138.515,1.755,1.755,0,0,0-1.6,0,6.876,6.876,0,0,1-6.3,0,1.755,1.755,0,0,0-1.6,0,6.729,6.729,0,0,1-2.427.706A16.172,16.172,0,0,0,99.784,46.7a19.831,19.831,0,0,0,1.024-11.3,6.9,6.9,0,0,1,2.674,1.744,1.751,1.751,0,0,0,1.754.474,6.859,6.859,0,0,1,8.8,6.336,1.752,1.752,0,0,0,.747,1.359,9.258,9.258,0,0,1,3.13,11.458,1.748,1.748,0,0,0,.248,1.847,6.907,6.907,0,0,1-5.316,11.32Z"/><path d="M72.166,28.343c1.278.248,3.154,1.884,3.084,5.372A1.751,1.751,0,0,0,76.965,35.5H77a1.751,1.751,0,0,0,1.75-1.715c.1-5.054-2.9-8.292-5.916-8.878a1.75,1.75,0,1,0-.668,3.436Z"/><path d="M88.452,53.443a1.751,1.751,0,0,0-.747,2.36c.6,1.155.486,3.641-2.288,5.757a1.75,1.75,0,0,0,2.121,2.783c4.02-3.064,4.69-7.427,3.274-10.154A1.751,1.751,0,0,0,88.452,53.443Z"/><path d="M55.256,33.338a9.631,9.631,0,0,0-4.791,10.153,1.75,1.75,0,0,0,3.4-.816,6.192,6.192,0,0,1,3.209-6.347,1.75,1.75,0,0,0-1.821-2.99Z"/><path d="M77.775,51.506a1.75,1.75,0,0,0-1.506,1.964,2.467,2.467,0,0,1-.493,1.9,1.29,1.29,0,0,1-1.025.459,1.75,1.75,0,0,0,0,3.5,4.8,4.8,0,0,0,3.657-1.65,5.971,5.971,0,0,0,1.33-4.67A1.754,1.754,0,0,0,77.775,51.506Z"/><path d="M45.488,62.15a1.75,1.75,0,1,0,1.857-2.966,4.525,4.525,0,0,1-1.65-5.835,1.75,1.75,0,0,0-3.223-1.364A8.077,8.077,0,0,0,45.488,62.15Z"/><path d="M50.189,27.7a1.7,1.7,0,0,0,.188.01,1.75,1.75,0,0,0,1.738-1.564c0-.03.348-2.975,3.006-3.417a1.751,1.751,0,0,0-.575-3.454c-4.2.7-5.7,4.558-5.911,6.5A1.749,1.749,0,0,0,50.189,27.7Z"/><path d="M68.167,49a1.75,1.75,0,0,0,1.75-1.75c0-.591.918-3.087,2.963-3.542a1.75,1.75,0,0,0-.76-3.416c-3.981.885-5.7,5.036-5.7,6.958A1.749,1.749,0,0,0,68.167,49Z"/><path d="M38.5,41.25a1.748,1.748,0,0,0,1.635-2.373c-.346-.91-.548-3.208,1.113-4.105a1.75,1.75,0,1,0-1.664-3.08c-3.194,1.727-3.785,5.632-2.719,8.431A1.749,1.749,0,0,0,38.5,41.25Z"/><path d="M79.76,19.867c.956.279,2.906,1.873,3.063,3.321a1.749,1.749,0,0,0,1.738,1.562,1.722,1.722,0,0,0,.189-.01A1.751,1.751,0,0,0,86.3,22.812c-.336-3.113-3.5-5.7-5.562-6.3a1.75,1.75,0,1,0-.98,3.359Z"/><path d="M85.756,41.126a1.75,1.75,0,1,0,2.023,2.857c2.554-1.808,3.277-5.835,2.8-7.927a1.75,1.75,0,1,0-3.412.779C87.388,37.806,86.945,40.285,85.756,41.126Z"/><path d="M20.859,49.719a1.75,1.75,0,0,0-2.474-.077c-3.446,3.236-1.761,9.129-1.558,9.79a1.75,1.75,0,0,0,3.346-1.03c-.349-1.134-.987-4.711.609-6.21A1.749,1.749,0,0,0,20.859,49.719Z"/><path d="M18.316,46.582a1.716,1.716,0,0,0,.472.065A1.777,1.777,0,0,0,20.475,45.4a2.7,2.7,0,0,1,2.858-1.728,1.75,1.75,0,0,0,0-3.5,6.213,6.213,0,0,0-6.233,4.3A1.733,1.733,0,0,0,18.316,46.582Z"/><path d="M107.141,49.719a1.749,1.749,0,0,0,.077,2.473c1.589,1.493.978,4.992.609,6.21a1.75,1.75,0,0,0,3.346,1.03c.2-.661,1.888-6.554-1.558-9.79A1.751,1.751,0,0,0,107.141,49.719Z"/><path d="M107.517,45.363a1.75,1.75,0,0,0,1.691,1.3,1.776,1.776,0,0,0,.447-.058,1.749,1.749,0,0,0,1.245-2.138,6.213,6.213,0,0,0-6.233-4.3,1.75,1.75,0,0,0,0,3.5A2.7,2.7,0,0,1,107.517,45.363Z"/></g></svg>
