<svg height="512" viewBox="0 0 128 128" width="512" xmlns="http://www.w3.org/2000/svg"><g><path d="m96.827 87.808a57.834 57.834 0 0 1 -9.953 2.785 1.751 1.751 0 0 0 .326 3.47 1.773 1.773 0 0 0 .33-.032 61.248 61.248 0 0 0 10.558-2.958 1.75 1.75 0 1 0 -1.261-3.265z"/><path d="m108.437 27.278c-17.931-11.197-49.476-.978-71.057 11.186-25.859 13.093-31.658 25.7-32.473 33.1a1.758 1.758 0 0 0 -.157.707v17c0 9.591 7.1 16.289 17.27 16.289 7.527 0 10.716-1.569 14.408-3.387a44.114 44.114 0 0 1 11.24-4.034c5.54-1.223 12.091-.214 19.029.856 7.3 1.126 14.849 2.29 21.962.934 20.914-4 33.809-15.259 34.54-30.149a1.716 1.716 0 0 0 .021-.27v-16.43c0-.033-.008-.063-.009-.095.376-9.893-5.141-19.692-14.774-25.707zm-69.437 14.291.07-.037c14.628-8.251 33.92-15.643 49.862-15.643 6.666 0 12.748 1.294 17.655 4.358 9.577 5.98 14.6 16.07 12.8 25.707-2.217 11.866-13.656 20.612-31.383 24-6.523 1.246-13.768.125-20.776-.954-7.27-1.121-14.134-2.179-20.318-.813a47.084 47.084 0 0 0 -12.03 4.313c-3.569 1.756-6.148 3.025-12.861 3.025s-12.1-3.765-13.441-9.369c-1.978-8.282 4.978-21.716 30.422-34.587zm80.715 27.868c-.558 13.253-12.415 23.363-31.715 27.054-6.518 1.244-13.764.125-20.772-.956-7.272-1.121-14.139-2.181-20.318-.813a47.129 47.129 0 0 0 -12.03 4.311c-3.57 1.758-6.149 3.027-12.862 3.027-8.236 0-13.77-5.14-13.77-12.789v-6.214a17.753 17.753 0 0 0 13.769 5.965c7.528 0 10.715-1.568 14.406-3.385a44.094 44.094 0 0 1 11.243-4.037c5.54-1.226 12.092-.214 19.029.855 7.3 1.125 14.849 2.29 21.961.931 14.95-2.854 25.8-9.4 31.064-18.454v4.388c-.004.039-.007.08-.009.117z"/><path d="m22.019 83.022c6.13 0 8.368-1.1 11.757-2.769a49.925 49.925 0 0 1 12.6-4.508 32.116 32.116 0 0 1 7-.7 95.83 95.83 0 0 1 14.236 1.484 95.276 95.276 0 0 0 14.07 1.471 30.981 30.981 0 0 0 5.848-.5c16.663-3.182 27.378-11.2 29.4-22 1.611-8.619-2.969-17.7-11.667-23.128-4.171-2.6-9.63-3.925-16.226-3.925-13.569 0-31.789 5.707-48.7 15.248l-.2.109c-24.154 12.21-30.881 24.417-29.127 31.768 1.063 4.456 5.49 7.45 11.009 7.45zm19.721-36.122.273-.146c16.448-9.277 34.026-14.816 47.02-14.816 5.93 0 10.766 1.142 14.372 3.394 7.468 4.663 11.425 12.323 10.08 19.516-1.739 9.309-11.439 16.309-26.611 19.206a27.565 27.565 0 0 1 -5.192.443 92.766 92.766 0 0 1 -13.545-1.433 98.4 98.4 0 0 0 -14.764-1.524 35.664 35.664 0 0 0 -7.758.783 52.989 52.989 0 0 0 -13.386 4.787c-3.156 1.553-4.894 2.408-10.21 2.408-3.869 0-6.925-1.913-7.6-4.762-1.114-4.645 3.381-15.741 27.321-27.856z"/><path d="m90.375 48.5c4.089 0 7.292-2.333 7.292-5.312s-3.2-5.313-7.292-5.313-7.292 2.333-7.292 5.313 3.203 5.312 7.292 5.312zm0-7.125c2.279 0 3.792 1.091 3.792 1.813s-1.513 1.812-3.792 1.812-3.792-1.091-3.792-1.812 1.517-1.813 3.792-1.813z"/></g></svg>