<svg height="512" viewBox="0 0 128 128" width="512" xmlns="http://www.w3.org/2000/svg"><path d="m105.46 5.918a1.75 1.75 0 0 0 -2.232-1.068l-15.61 5.5a1.751 1.751 0 0 0 -1.131 1.29l-3.878 18.443h-34.522a12.883 12.883 0 1 0 -13.037 14.623l8.14 70.894v5.9a1.751 1.751 0 0 0 1.75 1.75h38.12a1.751 1.751 0 0 0 1.75-1.75v-5.9l9.595-83.565a1.75 1.75 0 0 0 -1.738-1.95h-6.481l3.524-16.76 14.682-5.175a1.749 1.749 0 0 0 1.068-2.232zm-79.52 25.912a9.387 9.387 0 0 1 18.611-1.747h-4.993l1.255-1.255a1.749 1.749 0 0 0 -2.474-2.474l-1.256 1.255v-1.776a1.75 1.75 0 0 0 -3.5 0v1.776l-1.255-1.255a1.749 1.749 0 0 0 -2.474 2.474l1.255 1.255h-1.776a1.75 1.75 0 0 0 0 3.5h1.776l-1.255 1.256a1.749 1.749 0 1 0 2.474 2.474l1.68-1.68.638 5.553a9.4 9.4 0 0 1 -8.706-9.356zm55.56 81.92h-35l-5.978-52.067a66.3 66.3 0 0 1 21.137.165 65.054 65.054 0 0 0 11.673.876 124.665 124.665 0 0 0 14.12-.817zm-34.809 6v-2.5h34.619v2.5zm41.172-61.421c-6.868.905-18.7 1.4-25.542.083a69.783 69.783 0 0 0 -22.2-.207l-2.821-24.622h53.4z"/></svg>