<svg height="512" viewBox="0 0 128 128" width="512" xmlns="http://www.w3.org/2000/svg"><g><path d="m78.943 26.247a1.786 1.786 0 0 0 -.122-.33c0-.009-.006-.021-.011-.03l-5.8-11.4-1.188-8.218a1.75 1.75 0 0 0 -1.732-1.5h-56.35a1.75 1.75 0 0 0 -1.731 1.493l-1.2 8.063-5.845 11.354a1.747 1.747 0 0 0 -.194.8v.157.044 94.835a1.75 1.75 0 0 0 1.75 1.75h70.733a1.75 1.75 0 0 0 1.75-1.75v-94.834a1.777 1.777 0 0 0 -.05-.4c-.003-.013-.008-.023-.01-.034zm-65.452-9.479h56.754l4.155 8.163h-65.113zm-5.225 11.663h67.234v5.169.033 18.685h-67.234zm0 27.387h67.234v33.75h-67.234zm60.309-47.548.723 5h-54.791l.743-5zm-60.309 111.496v-26.7h67.234v26.7z"/><path d="m12.518 33.684a1.749 1.749 0 0 0 -1.75 1.75v9a1.75 1.75 0 0 0 3.5 0v-9a1.75 1.75 0 0 0 -1.75-1.75z"/><path d="m54.421 63.921a6.486 6.486 0 0 0 -11.457-2.6 6.551 6.551 0 0 0 -1.24 5.27 7.528 7.528 0 0 1 -.694 4.742c-.938 1.75-2.539 2.435-4.887 2.225a6.523 6.523 0 0 0 -6.874 4.393 6.5 6.5 0 0 0 5.569 8.52c.721.068 1.445.1 2.155.1a16.818 16.818 0 0 0 15.491-9.1 20.236 20.236 0 0 0 1.937-13.55zm-5.021 11.894a13.29 13.29 0 0 1 -12.406 7.256c-.6 0-1.212-.029-1.822-.088a3.013 3.013 0 0 1 -2.252-1.361 2.963 2.963 0 0 1 -.329-2.571 3.031 3.031 0 0 1 2.922-2.026c.1 0 .207 0 .311.015 3.848.347 6.689-1.067 8.292-4.058a11 11 0 0 0 1.046-7.054 3.049 3.049 0 0 1 .563-2.457 2.938 2.938 0 0 1 3.048-1.071 2.881 2.881 0 0 1 2.227 2.247 16.912 16.912 0 0 1 -1.6 11.168z"/><path d="m120.556 45.019-1.714-2.319a10.11 10.11 0 0 1 -1.953-4.949l-.641-5.667h1.683a1.75 1.75 0 0 0 1.75-1.75v-6a1.75 1.75 0 0 0 -1.75-1.75h-30.341a1.75 1.75 0 0 0 -1.75 1.75v6a1.75 1.75 0 0 0 1.75 1.75h1.682l-.642 5.676a10.111 10.111 0 0 1 -1.956 4.949l-1.711 2.311a13.89 13.89 0 0 0 -2.7 8.2v26.23.094 35.966a7.764 7.764 0 0 0 7.75 7.76h25.5a7.769 7.769 0 0 0 7.76-7.76v-62.29a13.822 13.822 0 0 0 -2.717-8.201zm-31.216-18.934h26.841v2.5h-26.841zm-1.564 21.015 1.706-2.3a13.607 13.607 0 0 0 2.627-6.651l.685-6.059h19.932l.684 6.054a13.606 13.606 0 0 0 2.624 6.65l1.712 2.313a10.177 10.177 0 0 1 2.024 6.116v22.884c-3.927.753-11.531 1.754-15.282.27-5.813-2.3-11.312-3.847-18.728.056v-23.213a10.366 10.366 0 0 1 2.016-6.12zm27.734 72.67h-25.5a4.261 4.261 0 0 1 -4.25-4.26v-35.044c7.019-4.385 11.509-3.182 17.44-.835 4.654 1.842 12.73.728 16.57.034v35.845a4.265 4.265 0 0 1 -4.26 4.26z"/><path d="m115.514 66.813a1.751 1.751 0 0 0 1.75-1.75v-9a1.75 1.75 0 1 0 -3.5 0v9a1.75 1.75 0 0 0 1.75 1.75z"/></g></svg>