<svg height="512" viewBox="0 0 128 128" width="512" xmlns="http://www.w3.org/2000/svg"><g><path d="m74.968 17a2 2 0 1 0 -2.829 0 2 2 0 0 0 2.829 0z"/><circle cx="63.083" cy="16.25" r="2"/><path d="m90.338 58.431a1.749 1.749 0 0 0 1.749 1.736h.013a1.751 1.751 0 0 0 1.738-1.767c-.019-2.3-.067-4.512-.145-6.557a1.75 1.75 0 1 0 -3.5.133c.079 2.013.127 4.184.145 6.455z"/><path d="m104.64 31.341a16.818 16.818 0 0 0 -14.868-9.091h-1.138c-4.195-6.919-12.582-17.5-24.634-17.5s-20.439 10.581-24.634 17.5h-1.138a16.818 16.818 0 0 0 -14.868 9.091c-1.127 2.3-1.221 4.24-.264 5.478 1.021 1.322 3.094 2.169 6.175 2.788-1.956 14.769-.908 35.312-.127 50.476.464 9.026.9 17.553.311 19.268a17.438 17.438 0 0 1 -3.479 5.562c-1.6 1.921-3.254 3.907-2.1 6.349 1.476 3.152 5.948 1.887 9.9.772a19.2 19.2 0 0 1 3.222-.746c1.712.077 3.537.172 5.466.273 6.263.325 13.362.694 21.332.709h.423c7.967-.015 15.066-.384 21.329-.709 1.929-.1 3.754-.2 5.471-.273a15.926 15.926 0 0 1 3.217.746 24.791 24.791 0 0 0 6.175 1.22c1.659 0 3.022-.5 3.718-1.987 1.155-2.447-.5-4.433-2.1-6.354a17.451 17.451 0 0 1 -3.48-5.563c-.591-1.714-.152-10.241.312-19.267.781-15.164 1.829-35.707-.127-50.476 3.081-.619 5.155-1.466 6.176-2.788.951-1.238.857-3.183-.27-5.478zm-40.64-23.091c9.542 0 16.747 8.408 20.483 14h-30.912a1.98 1.98 0 0 0 -.561-1.164 1.991 1.991 0 0 0 -3.391 1.164h-6.1c3.734-5.592 10.939-14 20.481-14zm31.361 81.65c-.616 11.98-.9 18.336-.126 20.586a20.614 20.614 0 0 0 4.1 6.664c.842 1.011 1.71 2.054 1.645 2.536-.929.349-4.322-.606-5.8-1.023a15.826 15.826 0 0 0 -4.331-.874c-1.72.077-3.554.172-5.492.272-6.222.325-13.275.691-21.15.706h-.417c-7.878-.015-14.931-.381-21.153-.706-1.938-.1-3.772-.195-5.488-.272a15.694 15.694 0 0 0 -4.335.874c-1.476.417-4.871 1.375-5.8 1.022-.068-.476.8-1.522 1.647-2.535a20.6 20.6 0 0 0 4.1-6.663c.777-2.251.491-8.607-.125-20.587-.772-15-1.808-35.3.088-49.739 1.51.2 3.174.374 5.005.54 6.709.611 15.415.921 25.878.921h.78c10.463 0 19.169-.31 25.878-.921 1.831-.166 3.5-.342 5-.54 1.904 14.439.868 34.746.096 49.739zm1.152-53.45h-.008-.011c-2.522.4-5.2.643-6.543.765-6.6.6-15.2.907-25.561.907h-.78c-10.357 0-18.957-.3-25.561-.907-1.338-.122-4.021-.365-6.543-.765h-.011-.009c-2.5-.4-4.835-.947-5.545-1.682a7.031 7.031 0 0 1 1.8-3.83 13.392 13.392 0 0 1 10.487-5.188h51.544a13.393 13.393 0 0 1 10.485 5.188 7.031 7.031 0 0 1 1.8 3.83c-.708.732-3.045 1.285-5.544 1.682z"/><path d="m75.651 72.12a1.75 1.75 0 0 0 -1.527-2.083 12.927 12.927 0 0 0 -5.909.932 9.557 9.557 0 0 0 .954-4.021c0-4.552-3.83-8.08-3.993-8.228a1.749 1.749 0 0 0 -2.352 0c-.163.148-3.993 3.676-3.993 8.228a9.534 9.534 0 0 0 .954 4.02 12.933 12.933 0 0 0 -5.909-.931 1.75 1.75 0 0 0 -1.527 2.083 12.67 12.67 0 0 0 3.087 5.814 11.746 11.746 0 0 0 -1.56.027 1.751 1.751 0 0 0 -1.527 2.084 12.087 12.087 0 0 0 4.158 6.742 11.079 11.079 0 0 0 5.743 1.94v4.523a1.75 1.75 0 0 0 3.5 0v-4.523a11.076 11.076 0 0 0 5.743-1.94 12.087 12.087 0 0 0 4.158-6.742 1.751 1.751 0 0 0 -1.527-2.084 11.53 11.53 0 0 0 -1.559-.027 12.674 12.674 0 0 0 3.086-5.814zm-4.266 1.527a6.209 6.209 0 0 1 -4.834 3.544 6.214 6.214 0 0 1 4.834-3.544zm-7.385-10.985a7.576 7.576 0 0 1 1.67 4.286 7.539 7.539 0 0 1 -1.67 4.285 7.57 7.57 0 0 1 -1.67-4.285 7.545 7.545 0 0 1 1.67-4.286zm-4.512 12.138a6.883 6.883 0 0 1 1.961 2.393 6.207 6.207 0 0 1 -4.833-3.543 6.919 6.919 0 0 1 2.872 1.15zm-.912 9.167a6.9 6.9 0 0 1 -1.96-2.393 6.205 6.205 0 0 1 4.833 3.543 6.906 6.906 0 0 1 -2.873-1.152zm10.848 0a6.9 6.9 0 0 1 -2.873 1.15 6.209 6.209 0 0 1 4.833-3.544 6.907 6.907 0 0 1 -1.96 2.392z"/></g></svg>