<svg xmlns="http://www.w3.org/2000/svg" viewBox="0 0 500 500"><g id="background-simple--inject-40"><path d="M92.07,361.43S135.16,416,208.79,418.22s139.48-43.68,193.8-79.46,72.15-95.62,45-145-76.35-32.47-135.47-67.18S242.56,73.68,174,76.8,48.75,153.13,51.25,235.17,92.07,361.43,92.07,361.43Z" style="fill:#CFD8DC"></path><path d="M92.07,361.43S135.16,416,208.79,418.22s139.48-43.68,193.8-79.46,72.15-95.62,45-145-76.35-32.47-135.47-67.18S242.56,73.68,174,76.8,48.75,153.13,51.25,235.17,92.07,361.43,92.07,361.43Z" style="fill:#fff;opacity:0.8"></path></g><g id="Character--inject-40"><path d="M339.74,420.32c0,3.88-43.13,7-96.34,7s-96.33-3.14-96.33-7,43.13-7,96.33-7S339.74,416.44,339.74,420.32Z" style="fill:#CFD8DC"></path><path d="M339.74,420.32c0,3.88-43.13,7-96.34,7s-96.33-3.14-96.33-7,43.13-7,96.33-7S339.74,416.44,339.74,420.32Z" style="fill:#fff;opacity:0.4"></path><path d="M259.66,130s3.38,4.87,3.59,9.1.21,7.83.85,9.31,2.75,2.54,2.54,3.81-1.91,2.54-1.91,2.54-1.05,5.92-3,8.68-4.44,1.69-6.56,1.48a17.42,17.42,0,0,1-3.81-.85,15.53,15.53,0,0,0-3.38,7.83,22.5,22.5,0,0,0,.21,7l-14.81-4.44s7-5.71,6.13-12.49a28.44,28.44,0,0,0-4.23-11.63s-7.83-8.68-4.86-13.76,5.92-9.52,9.31-11.21S259.66,130,259.66,130Z" style="fill:#fff;stroke:#263238;stroke-linecap:round;stroke-linejoin:round"></path><path d="M256.69,152.88s3,3,4.87,3.38" style="fill:none;stroke:#263238;stroke-linecap:round;stroke-linejoin:round;stroke-width:0.75px"></path><line x1="257.96" y1="151.82" x2="255.42" y2="153.93" style="fill:none;stroke:#263238;stroke-linecap:round;stroke-linejoin:round;stroke-width:0.75px"></line><ellipse cx="261.24" cy="146.42" rx="0.95" ry="2.43" style="fill:#263238"></ellipse><path d="M257.33,141.24s1.27-3.81,4-2.75" style="fill:none;stroke:#263238;stroke-linecap:round;stroke-linejoin:round;stroke-width:0.75px"></path><path d="M227.7,131.93s-1-6.35-9.73-6.35-8.89,12.69-6.77,18,9.94,7.41,13.54,4.87,4-7,4-9.1A59.59,59.59,0,0,0,227.7,131.93Z" style="fill:#263238;stroke:#263238;stroke-linecap:round;stroke-linejoin:round"></path><path d="M242.09,148s9.31-1.06,10.79-4.87-1.48-6.35-1.9-7.4,9.31-.64,11-8.89-3.38-9.52-4.86-8.25-1.48,6.56-1.48,6.56-4.45-6.14-8.47-6.78-4.65.85-3.6,2.33a30.61,30.61,0,0,0,3.81,3.81S235.75,119.65,230,126s-8.46,13.54-3.38,20.74A31.87,31.87,0,0,0,238.5,156.9S238.92,150.76,242.09,148Z" style="fill:#263238;stroke:#263238;stroke-linecap:round;stroke-linejoin:round"></path><path d="M243.36,149.49s-1.69-7.19-4.44-3.6-.42,7.62,1.27,9.31,4.87.21,4.87.21" style="fill:#fff;stroke:#263238;stroke-linecap:round;stroke-linejoin:round"></path><path d="M334.35,178.48s5.5,3.6,4.23,5.08a26.46,26.46,0,0,1-4.86,3.59s-4.66-2.32-6.77-3.59.42-3.39,2.53-4.66S333.08,177,334.35,178.48Z" style="fill:#fff;stroke:#263238;stroke-linecap:round;stroke-linejoin:round"></path><path d="M247.17,177.63l18,5.5c2.75.85,9.31.64,9.31.64a115.88,115.88,0,0,0,17.77-3c9.1-2.33,27.51-3.18,27.51-3.18s8.89-2.33,13.75-1.69l13.12,1.69a8.78,8.78,0,0,1-3.8,1.7c-2.33.42-8.26-.64-9.53-.22a8.3,8.3,0,0,0-2.75,2.33s4.23,3.81,4.23,4.87-.42,3-1.69,2.75-1.27-1.48-3-2.33-3.6-1.27-5.93-2.54a17.08,17.08,0,0,1-3.59-2.54c-.35-.34-11.31,5.33-12.59,5.86a121.91,121.91,0,0,1-14.47,5.13c-9.43,2.65-19.72,4.29-29.44,2.34-6.35-1.27-16.93-4.86-16.93-4.86s-6.56-3-6.13-8.47S247.17,177.63,247.17,177.63Z" style="fill:#fff;stroke:#263238;stroke-linecap:round;stroke-linejoin:round"></path><path d="M251.4,182.71s-5.5-9.31-10.79-11.85S230,175.3,227.28,181.44,225,197.1,225.59,206s4.87,19,4.87,19-9.1,11-11.22,21.37.85,23.91,2.12,33.22,1.9,24.76,1.9,24.76-5.71,6.35-6.56,14.18-3.79,41.64-3.79,45.66-.84,9.95,0,11,.85,1,1.7,1,20.73-1.9,22.43-3.38,2.53-2.54.63-3.39-18-7-18.2-8.67,15-39.53,17.54-46.3,5.29-36.4,6.35-40.84,3.18-12.49,3.18-12.49a202.14,202.14,0,0,0,22.29-2.94c14.39-2.54,27.88-9.44,27.88-9.44s-7.32,13.77-4.65,22.87,3.77,22,4.34,30.85-.61,8,.57,8.82,9.8-3.21,12.19-3.55,11.06-1.34,13.84-3.12-9.35-3.55-14.44-5.49-5.36-3-5.36-3-.19-6.85,5.54-34.7c2.85-13.89,4.11-25.28.42-26.4s-34-.5-41.39,1.41A26,26,0,0,0,256.06,243s-3.39-14.6-3-19.89,1.27-12.28,1.27-12.28,6.34-2.32,6.13-7.83-4.44-9.73-6.35-13.11A30.26,30.26,0,0,1,251.4,182.71Z" style="fill:#fff;stroke:#263238;stroke-linecap:round;stroke-linejoin:round"></path><path d="M237.67,369.51c-1.63-.72-13.64-5.32-17.2-7.69a2.87,2.87,0,0,0-.79,2,25.08,25.08,0,0,0,1.27,3.39l-8.27,2.24c-.17,2.72-.28,5.15.23,5.8.85,1,.85,1,1.7,1s20.73-1.9,22.43-3.38S239.57,370.36,237.67,369.51Z" style="fill:#CFD8DC;stroke:#263238;stroke-linecap:round;stroke-linejoin:round"></path><path d="M305.63,277.68c.77-4.39,1.77-9.72,3.11-16.21,2.85-13.89,4.11-25.28.42-26.4s-34-.5-41.39,1.41c-4.28,1.1-9.87,2.65-10.15,3-.48-2.11-4.56-10-4.56-15.36-8.92.57-17.06,1.13-17.53,1.31l-7.89,3.35c-2.86,4.11-7,11-8.4,17.6-2.12,10.37.85,23.91,2.12,33.22s1.9,24.76,1.9,24.76-5.71,6.35-6.56,14.18c-.54,5-4.31,25.16-4.07,34.45a30.86,30.86,0,0,0,9.47-.72c3.43-9.83,13.18-33.14,14.91-37.75,2.54-6.77,5.29-36.4,6.35-40.84s3.18-12.49,3.18-12.49a202.14,202.14,0,0,0,22.29-2.94c14.39-2.54,27.88-9.44,27.88-9.44s-7.32,13.77-4.65,22.87c.67,2.3,1.25,4.85,1.74,7.51A26.46,26.46,0,0,0,305.63,277.68Z" style="fill:#263238;stroke:#263238;stroke-linecap:round;stroke-linejoin:round"></path><path d="M253.1,223.13c.42-5.29,1.27-12.28,1.27-12.28s6.34-2.32,6.13-7.83-4.44-9.73-6.35-13.11a30.26,30.26,0,0,1-2.75-7.2s-5.5-9.31-10.79-11.85S230,175.3,227.28,181.44,225,197.1,225.59,206s4.87,19,4.87,19-7.22,8.75-10.29,18a39.37,39.37,0,0,0,17.9,3c10.07-.74,16.92-4.22,19.55-6.48C256.64,234.78,252.82,226.64,253.1,223.13Z" style="fill:#CFD8DC;stroke:#263238;stroke-linecap:round;stroke-linejoin:round"></path><path d="M245.48,195.41s-5.36,4.09-15.36,6.09" style="fill:none;stroke:#263238;stroke-linecap:round;stroke-linejoin:round"></path><path d="M246.12,197s-5,7-10.5,9" style="fill:none;stroke:#263238;stroke-linecap:round;stroke-linejoin:round"></path><path d="M230,238.71c-1.08.63-2.19,1.23-3.34,1.79" style="fill:none;stroke:#263238;stroke-linecap:round;stroke-linejoin:round"></path><path d="M251.12,218a68.21,68.21,0,0,1-17,18" style="fill:none;stroke:#263238;stroke-linecap:round;stroke-linejoin:round"></path><path d="M265.37,142.41v4.73a1,1,0,0,0,.86,1L295.72,152a1,1,0,0,0,1.12-1l.05-9.44a1,1,0,0,0-1-1l-29.55.79A1,1,0,0,0,265.37,142.41Z" style="fill:#263238;stroke:#263238;stroke-linecap:round;stroke-linejoin:round"></path><path d="M274.47,153.3s-5.72-1.48-6.14-3.18a13.59,13.59,0,0,1-.42-3s2.75.64,3.6.21.21-12.27,1.27-12.9,4.44-2.12,5.71.84.42,2.12.42,2.12a8.24,8.24,0,0,1,3.39,0,8.44,8.44,0,0,1,3,1.9s2.75-.42,3.39,1.48-2.33,9.95-4.24,13.55-2.54,5.07-2.54,5.07-2.54,31.75-4,37.88S274,207,272.92,207s-19.82-8.67-27.44-11.63-12.7-2.2-14-9.82,4-9.44,8.47-9.44,27.72,14,27.72,14,7.4-22,7.4-27.93A47.64,47.64,0,0,0,274.47,153.3Z" style="fill:#fff;stroke:#263238;stroke-linecap:round;stroke-linejoin:round"></path><path d="M323,304.7c2.79-1.77-9.35-3.55-14.44-5.49a23.57,23.57,0,0,1-4.19-2,2.66,2.66,0,0,0-.71,2,17.31,17.31,0,0,0,.8,3.73s-4.58,1.25-7.93,2.27c.2,6-.6,5.45.44,6.15s9.8-3.21,12.19-3.55S320.22,306.48,323,304.7Z" style="fill:#CFD8DC;stroke:#263238;stroke-linecap:round;stroke-linejoin:round"></path><line x1="246.54" y1="261.21" x2="251.62" y2="250" style="fill:none;stroke:#263238;stroke-linecap:round;stroke-linejoin:round;stroke-width:0.75px"></line><circle cx="289.93" cy="411.38" r="7.78" style="fill:#263238;stroke:#263238;stroke-linecap:round;stroke-linejoin:round;stroke-width:0.75px"></circle><path d="M285,404.78s1.65,7.07,2.59,8.49,4,2.12,4.72-.95-2.59-8-2.59-8Z" style="fill:#fff;stroke:#263238;stroke-linecap:round;stroke-linejoin:round;stroke-width:0.75px"></path><circle cx="189.23" cy="411.38" r="7.78" style="fill:#263238;stroke:#263238;stroke-linecap:round;stroke-linejoin:round;stroke-width:0.75px"></circle><path d="M194.18,404.78s-1.65,7.07-2.59,8.49-4,2.12-4.72-.95,2.6-8,2.6-8Z" style="fill:#fff;stroke:#263238;stroke-linecap:round;stroke-linejoin:round;stroke-width:0.75px"></path><path d="M309.79,338.75a1.59,1.59,0,0,0-.08-1.42l-1.6-27.22a1.67,1.67,0,0,0-1.35-1.54L182.3,284.38l-2-10.56a6.66,6.66,0,0,0-6.47-5.41l-23-.2h0a1.67,1.67,0,0,0,0,3.34l23,.2a3.31,3.31,0,0,1,3.21,2.69l11.73,62.28s0,.08,0,.12a1.59,1.59,0,0,0,.17.75l7.49,39.73a1.65,1.65,0,0,0,0,1.16s1.63,4.57-.5,11.16a32.25,32.25,0,0,1-7.35,11.81,1.61,1.61,0,0,0-.46.95h-8.76a1.67,1.67,0,1,0,0,3.34H293.23a1.67,1.67,0,0,0,0-3.34H241.91c-1-3.07-2.17-9.9,1.73-13.35A30,30,0,0,0,253.18,373l56.61-8.06a1.66,1.66,0,0,0,1.43-1.75Zm-53.71,30.43-.4-3.35,8.37-.85.26,3ZM244,370.9l-.48-3.84,8.84-.89.41,3.48Zm-40.93-79.08L205.82,309l-9.76-1-3.39-18.19Zm15.3,3,1.78,15.63-10.88-1.1-2.71-16.82Zm13,2.53,1.82,14.41-9.63-1-1.75-15.3Zm13.22,2.57L246.12,313l-9.53-1L234.82,298Zm61.73,36.54-14.13-.15c-.39-5.51-.76-10.81-1.07-15.35l14.37,1.45Zm-17.49-.19-10.38-.11-1.13-16.59,10.43,1C288.06,325.24,288.44,330.7,288.82,336.24ZM214,338.78l9.39.1,3,26.55-8,.81Zm1.09,27.8-8,.8-5.35-28.73,8.84.1Zm33.7-30.77-9.24-.1L237,315.48l9.5,1Zm1.13-19,10,1L261.54,336l-9.37-.1Zm-13.74,18.9-9.8-.11-2.45-21.41,9.66,1ZM223,335.54l-9.55-.11-3.66-22.69,10.72,1.08Zm3.75,3.38,9.84.11,3.15,25.05-10,1Zm13.21.14,9.21.1L252,362.85l-8.88.89Zm12.58.14,9.27.1,1.93,22.35-8.47.86Zm12.63.13,10.12.11,1.42,20.9-9.64,1ZM264.9,336l-1.55-17.86,10.59,1.07,1.15,16.9Zm12.18-19.83-.68-10.09,10.49,2c.08,1.39.31,4.7.61,9.1Zm-3.37-.34-10.65-1.08-1-11.45L273,305.41Zm-14-1.42-10.15-1L248,300.56l10.63,2.06Zm-53.31-2,3.71,23-8.93-.1-4.45-23.88Zm-8.63,22.87-5.87-.06-4.66-24.74,6,.61Zm.63,3.35,5.42,29.11-5.69.58-5.6-29.75Zm.35,33,5.69-.57,1,5.37-5.64.8Zm10,4.33-1-5.24,7.88-.8.8,4.94Zm11-1.57-.77-4.8,7.85-.8.51,4.52Zm10.9-1.55-.5-4.39,10-1,.5,4Zm36.74-8.15,9.58-1,.17,2.5-9.5,1.35Zm12.91-1.31,10.36-1c.05.7.09,1.34.13,1.95l-10.33,1.47Zm-.23-3.34-1.39-20.52,10.39.11c.49,7,1,14,1.35,19.37Zm12.35-20.37,14.09.15,1,17.45-13.79,1.39C293.33,352.79,292.87,346.16,292.41,339.63ZM305.28,319l-14.4-1.45c-.28-4-.49-7.08-.6-8.78l14.57,2.83ZM189.14,289.12l3.46,18.52-6-.6L183,287.91Zm52.28,97.43c-4.82,4.26-4.11,11.64-3,15.85h-46.2a34.63,34.63,0,0,0,6.84-11.73,24.08,24.08,0,0,0,1.13-10.16l6.94-1a1.87,1.87,0,0,0,.25,0,1.51,1.51,0,0,0,.3,0,1.72,1.72,0,0,0,.45-.16l41.48-5.91A27.1,27.1,0,0,1,241.42,386.55Zm52.68-22.79c0-.58-.08-1.19-.12-1.8l13.74-1.39.08,1.25Z" style="fill:#fff;stroke:#263238;stroke-linecap:round;stroke-linejoin:round"></path><path d="M170.13,272.75H145.84a3.35,3.35,0,1,1,0-6.69h24.29a3.35,3.35,0,0,1,0,6.69Z" style="fill:#263238;stroke:#263238;stroke-linecap:round;stroke-linejoin:round"></path><line x1="207.76" y1="143.56" x2="187.73" y2="143.56" style="fill:none;stroke:#263238;stroke-linecap:round;stroke-linejoin:round"></line><line x1="166.7" y1="180.71" x2="160.97" y2="180.71" style="fill:none;stroke:#263238;stroke-linecap:round;stroke-linejoin:round"></line><line x1="219.31" y1="180.71" x2="174.32" y2="180.71" style="fill:none;stroke:#263238;stroke-linecap:round;stroke-linejoin:round"></line><line x1="180.01" y1="293.01" x2="117.54" y2="293.01" style="fill:none;stroke:#263238;stroke-linecap:round;stroke-linejoin:round"></line><line x1="156.85" y1="304.95" x2="130.17" y2="304.95" style="fill:none;stroke:#263238;stroke-linecap:round;stroke-linejoin:round"></line><line x1="215.61" y1="249.37" x2="192.64" y2="249.37" style="fill:none;stroke:#263238;stroke-linecap:round;stroke-linejoin:round"></line><line x1="292.31" y1="274.06" x2="274.06" y2="274.06" style="fill:none;stroke:#263238;stroke-linecap:round;stroke-linejoin:round"></line><line x1="283.19" y1="269.85" x2="258.62" y2="269.85" style="fill:none;stroke:#263238;stroke-linecap:round;stroke-linejoin:round"></line></g></svg>