<svg width="347" height="237" viewBox="0 0 347 237" fill="none" xmlns="http://www.w3.org/2000/svg">
<path d="M10.8013 175.075C9.84121 175.075 9.06111 174.715 8.46104 173.995C7.98098 173.155 7.74095 172.195 7.74095 171.115C7.86097 169.314 8.22101 168.234 8.82108 167.874C9.42116 167.514 10.5613 167.334 12.2415 167.334C15.7219 167.334 18.3023 166.734 19.9825 165.534C21.6627 164.214 22.6828 162.654 23.0428 160.853C23.5229 158.933 23.8229 156.473 23.9429 153.472V82.0036C23.8229 79.0032 23.5229 76.6029 23.0428 74.8027C22.6828 72.8825 21.6627 71.3223 19.9825 70.1221C18.3023 68.802 15.7219 68.1419 12.2415 68.1419H11.1614C9.96122 68.1419 9.12112 67.9619 8.64106 67.6018C8.161 67.1218 7.86097 66.0416 7.74095 64.3614C7.74095 63.2813 7.98098 62.3812 8.46104 61.6611C9.06111 60.821 9.84121 60.4009 10.8013 60.4009C18.6023 60.761 25.7432 60.941 32.224 60.941H84.2504C87.3707 60.941 88.9309 62.3812 88.9309 65.2615L89.471 90.4646C89.471 91.5448 88.9309 92.4449 87.8508 93.165C86.7707 93.765 85.6905 94.0651 84.6104 94.0651C83.1702 94.0651 81.8501 93.825 80.6499 93.345C79.5698 92.7449 78.9697 91.9048 78.8497 90.8247C78.0096 84.944 76.9895 80.5034 75.7893 77.503C74.7092 74.3827 73.029 72.1024 70.7487 70.6622C68.5884 69.102 65.4681 68.2619 61.3875 68.1419H41.7651V114.948H73.9891C74.9492 115.068 75.6693 115.548 76.1494 116.388C76.6294 117.108 76.8695 118.008 76.8695 119.088C76.8695 120.048 76.6294 120.888 76.1494 121.608C75.6693 122.329 74.9492 122.689 73.9891 122.689H41.7651V153.472C41.8851 156.473 42.1252 158.933 42.4852 160.853C42.9653 162.654 44.0454 164.214 45.7256 165.534C47.4058 166.734 49.9861 167.334 53.4666 167.334H54.5467C55.6268 167.334 56.4069 167.574 56.887 168.054C57.4871 168.414 57.8471 169.434 57.9671 171.115C57.9671 172.195 57.6671 173.155 57.067 173.995C56.587 174.715 55.8069 175.075 54.7267 175.075C47.0458 174.715 39.6049 174.535 32.404 174.535C25.8032 174.535 18.6023 174.715 10.8013 175.075ZM225.632 175.075C224.672 175.075 223.892 174.715 223.292 173.995C222.812 173.155 222.572 172.195 222.572 171.115C222.692 169.314 223.052 168.234 223.652 167.874C224.252 167.514 225.392 167.334 227.073 167.334C230.553 167.334 233.133 166.734 234.814 165.534C236.494 164.214 237.514 162.654 237.874 160.853C238.354 158.933 238.654 156.473 238.774 153.472V82.0036C238.654 79.0032 238.354 76.6029 237.874 74.8027C237.514 72.8825 236.494 71.3223 234.814 70.1221C233.133 68.802 230.553 68.1419 227.073 68.1419H225.992C224.792 68.1419 223.952 67.9619 223.472 67.6018C222.992 67.1218 222.692 66.0416 222.572 64.3614C222.572 63.2813 222.812 62.3812 223.292 61.6611C223.892 60.821 224.672 60.4009 225.632 60.4009C233.553 60.761 240.694 60.941 247.055 60.941H275.138C286.66 60.941 297.101 63.2813 306.462 67.9619C315.944 72.5224 323.384 79.1232 328.785 87.7643C334.306 96.4054 337.066 106.607 337.066 118.368C337.066 130.61 333.946 140.991 327.705 149.512C321.584 157.913 313.543 164.214 303.582 168.414C293.741 172.495 283.179 174.535 271.898 174.535H247.055C240.694 174.535 233.553 174.715 225.632 175.075ZM274.598 167.874C288.64 167.874 298.901 163.554 305.382 154.913C311.983 146.151 315.283 133.97 315.283 118.368C315.283 108.527 313.483 99.7658 309.883 92.0848C306.402 84.2839 301.302 78.2231 294.581 73.9026C287.86 69.5821 279.879 67.4218 270.638 67.4218L256.596 67.6018V155.633C256.596 160.313 257.976 163.554 260.737 165.354C263.617 167.034 268.238 167.874 274.598 167.874Z" fill="#494848"/>
<path d="M170.14 75.4509C174.689 73.1542 179.474 60.2355 177.408 54.4118C170.794 58.8126 165.725 64.59 164.198 73.0348C166.087 71.7383 168.114 70.3463 170.14 68.9543V75.4509ZM147.358 164.023L148.232 162.711C153.195 163.536 156.441 168.258 160.575 170.962C154.359 157.895 143.933 151.533 135.775 155.333C140.669 162.383 149.049 172.468 153.537 171.766C151.511 169.228 149.434 166.626 147.358 164.023ZM131.367 91.8026C131.763 105.617 140.194 121.846 148.533 124.033C144.885 119.911 140.78 116.654 141.266 109.962C142.99 110.757 144.201 111.316 145.602 111.962C142.891 97.1024 140.461 94.7973 131.367 91.8026ZM178.714 148.503C185.251 142.137 182.965 126.057 177.16 114.908C171.316 123.646 170.224 138.672 173.456 143.063C174.286 140.747 175.155 138.315 176.023 135.884C176.404 135.94 176.782 135.995 177.161 136.049C177.872 137.982 178.921 139.853 179.196 141.863C179.463 143.827 178.937 145.931 178.714 148.503V148.503ZM158.296 45.6439C166.052 34.7549 166.836 14.6992 159.898 7.7545C158.641 10.5259 157.173 13.1301 156.232 15.9648C153.993 22.7043 151.609 29.4383 150.072 36.4012C149.229 40.2247 150.376 44.3446 153.403 48.0501C153.946 43.6352 154.193 40.0463 154.904 36.5824C155.192 35.182 156.488 34.0512 157.327 32.7982C158.051 34.1945 159.347 35.5739 159.379 36.9912C159.441 39.6193 158.766 42.2713 158.296 45.6439V45.6439ZM171.985 174.409C168.49 165.147 164.456 156.227 161.779 146.802C159.604 139.152 155.203 135.124 149.356 132.034C141.749 128.012 135.542 121.979 131.809 113.371C129.968 109.128 129.277 104.194 128.29 99.5128C127.607 96.2624 127.013 92.9207 126.902 89.5958C126.743 84.8115 128.723 83.4912 132.524 85.4071C133.28 85.7892 133.992 86.337 134.78 86.5758C144.255 89.468 147.596 97.8468 149.658 107.689C150.682 112.586 152.5 117.263 153.959 122.039C154.313 121.978 154.667 121.916 155.021 121.853C154.92 120.576 154.854 119.292 154.711 118.022C153.634 108.417 152.351 98.8357 151.522 89.2025C151.001 83.1597 147.226 79.5005 144.489 75.1264C142.186 71.449 139.198 68.3334 136.364 64.781C139.008 62.1655 141.213 62.4914 143.161 64.8246C144.95 66.9653 146.458 69.4122 148.171 71.6428C149.058 72.796 150.122 73.7737 151.548 75.3048C152.101 69.696 153.182 64.8709 152.823 60.192C152.587 57.1172 150.422 54.1421 148.859 51.3131C143.631 41.8569 144.221 32.5117 148.671 22.9333C151.649 16.5224 154.081 9.77862 157.064 3.37054C159.121 -1.05275 161.639 -1.11876 163.921 3.15001C168.224 11.2114 171.591 19.7939 169.347 29.4987C167.027 39.5308 163.717 49.1542 158.338 57.7128C157.41 59.1891 157.178 61.3818 156.992 63.2907C156.691 66.3725 156.68 69.4909 156.579 72.5952C156.535 73.9689 156.572 75.3469 156.572 76.7235C156.968 76.7993 157.362 76.8752 157.757 76.9524C158.613 74.0027 159.46 71.0487 160.325 68.1045C162.265 61.4997 166.33 56.8995 171.216 53.1083C173.354 51.4508 175.458 49.6612 177.772 48.3984C179.159 47.6427 181.029 47.3112 182.465 47.7411C183.121 47.9391 183.776 50.57 183.528 51.8708C182.194 58.8393 181.017 65.923 178.857 72.5713C177.893 75.5351 174.869 77.7208 172.574 79.9893C169.643 82.8914 166.38 85.358 163.482 88.2993C157.23 94.6456 156.89 102.566 159.282 112.006C160.845 109.219 162.056 107.054 163.271 104.891C163.654 104.214 163.918 103.262 164.464 102.929C165.652 102.208 166.987 101.808 168.261 101.276C168.013 102.677 167.947 104.164 167.484 105.467C165.5 111.06 163.387 116.593 161.364 122.169C161.206 122.605 161.286 123.228 161.405 123.715C163.215 131.194 165.052 138.662 166.883 146.134C167.229 146.12 167.574 146.105 167.919 146.093C167.919 144.545 168.325 142.806 167.853 141.478C165.069 133.683 167.41 126.714 170.268 119.821C171.58 116.657 172.933 113.478 174.621 110.573C175.428 109.184 176.992 107.761 178.332 107.595C179.274 107.477 180.991 109.226 181.375 110.525C183.626 118.132 186.461 125.724 187.331 133.577C187.896 138.664 185.877 144.369 184.247 149.475C181.564 157.874 179.889 166.483 180.924 175.244C181.351 178.857 184.34 182.099 186.256 185.442C186.962 186.674 188.333 187.577 188.663 188.875C188.979 190.122 188.702 192.046 187.991 192.983C187.542 193.577 185.309 193.437 184.747 192.725C179.067 185.536 171.583 183.647 163.664 182.069C152.651 179.875 142.894 174.651 135.8 164.06C133.447 160.548 130.285 157.76 127.669 154.458C127.02 153.639 126.513 151.713 126.908 150.987C127.57 149.774 128.995 148.395 130.127 148.361C133.591 148.259 137.101 149.236 140.536 148.934C148.684 148.219 154.07 153.118 159.001 159.575C162.562 164.238 166.411 168.619 170.175 173.075C170.705 173.703 171.486 174.051 171.985 174.409" fill="#C7D3B8"/>
<path d="M16.38 205.932V214.716H29.016V217.812H16.38V228H12.78V202.8H30.564V205.932H16.38ZM60.3996 228L54.9636 220.26C54.2916 220.308 53.7636 220.332 53.3796 220.332H47.1516V228H43.5516V202.8H53.3796C56.6436 202.8 59.2116 203.58 61.0836 205.14C62.9556 206.7 63.8916 208.848 63.8916 211.584C63.8916 213.528 63.4116 215.184 62.4516 216.552C61.4916 217.92 60.1236 218.916 58.3476 219.54L64.3236 228H60.3996ZM53.2716 217.272C55.5516 217.272 57.2916 216.78 58.4916 215.796C59.6916 214.812 60.2916 213.408 60.2916 211.584C60.2916 209.76 59.6916 208.368 58.4916 207.408C57.2916 206.424 55.5516 205.932 53.2716 205.932H47.1516V217.272H53.2716ZM95.9158 224.868V228H77.6278V202.8H95.4118V205.932H81.2278V213.672H93.8638V216.732H81.2278V224.868H95.9158ZM117.009 228.288C115.113 228.288 113.277 228 111.501 227.424C109.749 226.824 108.369 226.056 107.361 225.12L108.693 222.312C109.653 223.176 110.877 223.884 112.365 224.436C113.877 224.964 115.425 225.228 117.009 225.228C119.097 225.228 120.657 224.88 121.689 224.184C122.721 223.464 123.237 222.516 123.237 221.34C123.237 220.476 122.949 219.78 122.373 219.252C121.821 218.7 121.125 218.28 120.285 217.992C119.469 217.704 118.305 217.38 116.793 217.02C114.897 216.564 113.361 216.108 112.185 215.652C111.033 215.196 110.037 214.5 109.197 213.564C108.381 212.604 107.973 211.32 107.973 209.712C107.973 208.368 108.321 207.156 109.017 206.076C109.737 204.996 110.817 204.132 112.257 203.484C113.697 202.836 115.485 202.512 117.621 202.512C119.109 202.512 120.573 202.704 122.013 203.088C123.453 203.472 124.689 204.024 125.721 204.744L124.533 207.624C123.477 206.952 122.349 206.448 121.149 206.112C119.949 205.752 118.773 205.572 117.621 205.572C115.581 205.572 114.045 205.944 113.013 206.688C112.005 207.432 111.501 208.392 111.501 209.568C111.501 210.432 111.789 211.14 112.365 211.692C112.941 212.22 113.649 212.64 114.489 212.952C115.353 213.24 116.517 213.552 117.981 213.888C119.877 214.344 121.401 214.8 122.553 215.256C123.705 215.712 124.689 216.408 125.505 217.344C126.345 218.28 126.765 219.54 126.765 221.124C126.765 222.444 126.405 223.656 125.685 224.76C124.965 225.84 123.873 226.704 122.409 227.352C120.945 227.976 119.145 228.288 117.009 228.288ZM161.616 202.8V228H158.016V216.768H143.544V228H139.944V202.8H143.544V213.636H158.016V202.8H161.616ZM194.667 202.8H205.287C207.951 202.8 210.315 203.328 212.379 204.384C214.443 205.44 216.039 206.928 217.167 208.848C218.319 210.744 218.895 212.928 218.895 215.4C218.895 217.872 218.319 220.068 217.167 221.988C216.039 223.884 214.443 225.36 212.379 226.416C210.315 227.472 207.951 228 205.287 228H194.667V202.8ZM205.071 224.868C207.111 224.868 208.899 224.472 210.435 223.68C211.995 222.888 213.195 221.784 214.035 220.368C214.875 218.928 215.295 217.272 215.295 215.4C215.295 213.528 214.875 211.884 214.035 210.468C213.195 209.028 211.995 207.912 210.435 207.12C208.899 206.328 207.111 205.932 205.071 205.932H198.267V224.868H205.071ZM243.705 228.288C241.161 228.288 238.869 227.736 236.829 226.632C234.789 225.504 233.181 223.956 232.005 221.988C230.853 220.02 230.277 217.824 230.277 215.4C230.277 212.976 230.853 210.78 232.005 208.812C233.181 206.844 234.789 205.308 236.829 204.204C238.869 203.076 241.161 202.512 243.705 202.512C246.225 202.512 248.505 203.076 250.545 204.204C252.585 205.308 254.181 206.844 255.333 208.812C256.485 210.756 257.061 212.952 257.061 215.4C257.061 217.848 256.485 220.056 255.333 222.024C254.181 223.968 252.585 225.504 250.545 226.632C248.505 227.736 246.225 228.288 243.705 228.288ZM243.705 225.084C245.553 225.084 247.209 224.664 248.673 223.824C250.161 222.984 251.325 221.832 252.165 220.368C253.029 218.88 253.461 217.224 253.461 215.4C253.461 213.576 253.029 211.932 252.165 210.468C251.325 208.98 250.161 207.816 248.673 206.976C247.209 206.136 245.553 205.716 243.705 205.716C241.857 205.716 240.177 206.136 238.665 206.976C237.177 207.816 236.001 208.98 235.137 210.468C234.297 211.932 233.877 213.576 233.877 215.4C233.877 217.224 234.297 218.88 235.137 220.368C236.001 221.832 237.177 222.984 238.665 223.824C240.177 224.664 241.857 225.084 243.705 225.084ZM281.86 228.288C279.316 228.288 277.024 227.736 274.984 226.632C272.944 225.504 271.336 223.956 270.16 221.988C269.008 220.02 268.432 217.824 268.432 215.4C268.432 212.976 269.008 210.78 270.16 208.812C271.336 206.844 272.944 205.308 274.984 204.204C277.024 203.076 279.316 202.512 281.86 202.512C284.38 202.512 286.66 203.076 288.7 204.204C290.74 205.308 292.336 206.844 293.488 208.812C294.64 210.756 295.216 212.952 295.216 215.4C295.216 217.848 294.64 220.056 293.488 222.024C292.336 223.968 290.74 225.504 288.7 226.632C286.66 227.736 284.38 228.288 281.86 228.288ZM281.86 225.084C283.708 225.084 285.364 224.664 286.828 223.824C288.316 222.984 289.48 221.832 290.32 220.368C291.184 218.88 291.616 217.224 291.616 215.4C291.616 213.576 291.184 211.932 290.32 210.468C289.48 208.98 288.316 207.816 286.828 206.976C285.364 206.136 283.708 205.716 281.86 205.716C280.012 205.716 278.332 206.136 276.82 206.976C275.332 207.816 274.156 208.98 273.292 210.468C272.452 211.932 272.032 213.576 272.032 215.4C272.032 217.224 272.452 218.88 273.292 220.368C274.156 221.832 275.332 222.984 276.82 223.824C278.332 224.664 280.012 225.084 281.86 225.084ZM325.486 228L320.05 220.26C319.378 220.308 318.85 220.332 318.466 220.332H312.238V228H308.638V202.8H318.466C321.73 202.8 324.298 203.58 326.17 205.14C328.042 206.7 328.978 208.848 328.978 211.584C328.978 213.528 328.498 215.184 327.538 216.552C326.578 217.92 325.21 218.916 323.434 219.54L329.41 228H325.486ZM318.358 217.272C320.638 217.272 322.378 216.78 323.578 215.796C324.778 214.812 325.378 213.408 325.378 211.584C325.378 209.76 324.778 208.368 323.578 207.408C322.378 206.424 320.638 205.932 318.358 205.932H312.238V217.272H318.358Z" fill="#494848"/>
</svg>
