<svg width="500" height="500" viewBox="0 0 500 500" fill="none" xmlns="http://www.w3.org/2000/svg">
<path d="M416.68 475.65C394.23 464.65 385.59 439.03 382.76 415.28C382.29 411.28 381.21 407.28 382.56 403.48C383.91 399.68 387.91 396.69 391.7 397.81C394.84 398.74 396.64 401.95 398.7 404.51C401.469 407.932 405.146 410.503 409.31 411.93C412.02 412.84 415.25 413.16 417.52 411.41C420.64 409.01 420.31 404.25 419.69 400.33L416.18 378.42C415.55 374.5 414.92 370.5 415.57 366.59C416.22 362.68 418.38 358.81 421.95 357.19C425.52 355.57 430.47 357.01 431.84 360.73C432.42 362.27 432.35 363.98 432.71 365.59C433.07 367.2 434.1 368.89 435.71 369.11C437.32 369.33 438.71 367.97 439.71 366.64C443.15 362.06 445.11 356.54 446.9 351.07C448.69 345.6 450.38 340.02 453.39 335.14C456.4 330.26 460.95 326.05 466.52 324.86C472.09 323.67 478.61 326.23 480.88 331.52C483.15 336.81 480.84 342.94 478 348C473.817 355.441 468.579 362.238 462.45 368.18C461.35 369.25 460.15 370.4 459.9 371.93C459.45 374.67 462.33 376.93 465.04 377.35C468.12 377.88 471.24 377.09 474.36 376.97C477.48 376.85 480.99 377.7 482.59 380.42C484.82 384.18 482.11 388.9 479.23 392.16C473.463 398.675 466.62 404.151 459 408.35C456.27 409.84 453.38 411.24 451.36 413.62C449.34 416 448.49 419.75 450.36 422.3C452.23 424.85 455.93 425.18 458.87 424.15C461.81 423.12 464.26 421.07 466.97 419.54C472.05 416.67 479.07 415.97 483.24 420.1C485.98 422.82 486.83 427.05 486.24 430.88C485.65 434.71 483.81 438.2 481.78 441.48C474.7 452.95 464.9 462.81 453.06 469.07C441.22 475.33 429.81 478.29 416.69 475.65" fill="#F6AD55"/>
<path d="M420.5 459.9C422.441 446.422 425.156 433.067 428.63 419.9C429.53 416.393 430.42 412.933 431.3 409.52C432.18 406.12 433.06 402.75 434.12 399.52C436.173 393.29 438.566 387.177 441.29 381.21C443.85 375.5 446.49 370.21 448.99 365.21C451.49 360.21 453.94 355.67 456.34 351.59C460.085 345.132 464.338 338.982 469.06 333.2C470.72 331.2 472.06 329.61 472.99 328.58L474.05 327.41C474.163 327.27 474.29 327.143 474.43 327.03C474.333 327.18 474.226 327.324 474.11 327.46L473.11 328.68C472.23 329.74 470.92 331.31 469.29 333.39C464.666 339.224 460.487 345.398 456.79 351.86C454.43 355.94 452.03 360.53 449.54 365.49C447.05 370.45 444.45 375.8 441.91 381.49C439.215 387.444 436.845 393.539 434.81 399.75C433.76 402.98 432.9 406.32 432.01 409.75C431.12 413.18 430.25 416.62 429.35 420.12C425.884 433.258 423.153 446.578 421.17 460.02" fill="#E0E0E0"/>
<path d="M434.32 399.46C434.054 398.946 433.839 398.407 433.68 397.85C433.31 396.79 432.82 395.25 432.25 393.34C431.09 389.52 429.68 384.19 428.14 378.34C426.6 372.49 425.14 367.16 423.9 363.34C423.3 361.44 422.8 359.91 422.44 358.85C422.221 358.316 422.06 357.759 421.96 357.19C422.267 357.681 422.519 358.204 422.71 358.75C423.15 359.75 423.71 361.29 424.39 363.17C425.73 366.94 427.3 372.23 428.84 378.12C430.38 384.01 431.7 389.18 432.74 393.2C433.22 395.01 433.63 396.54 433.96 397.76C434.145 398.311 434.266 398.881 434.32 399.46V399.46Z" fill="#E0E0E0"/>
<path d="M483.31 382.28C482.661 382.523 481.992 382.707 481.31 382.83C480.04 383.14 478.19 383.59 475.92 384.21C471.38 385.42 465.16 387.31 458.39 389.69C451.62 392.07 445.6 394.52 441.29 396.41C439.13 397.33 437.4 398.13 436.2 398.67C435.592 398.99 434.956 399.254 434.3 399.46C434.858 399.073 435.451 398.739 436.07 398.46C437.24 397.83 438.94 396.96 441.07 395.97C445.34 393.97 451.36 391.44 458.14 389.04C463.926 386.974 469.814 385.205 475.78 383.74C478.07 383.18 479.94 382.81 481.24 382.59C481.919 382.422 482.612 382.318 483.31 382.28V382.28Z" fill="#E0E0E0"/>
<path d="M421 458.88C420.827 458.715 420.679 458.527 420.56 458.32L419.41 456.63C418.41 455.15 417.06 452.98 415.41 450.28C412.09 444.88 407.73 437.28 403.04 428.81C398.35 420.34 394.04 412.71 390.87 407.24L387 400.78C386.59 400.08 386.25 399.5 386 399.02C385.864 398.819 385.756 398.6 385.68 398.37C385.847 398.543 385.995 398.735 386.12 398.94C386.43 399.4 386.81 399.94 387.26 400.63C388.26 402.1 389.62 404.27 391.26 406.97C394.58 412.38 398.93 419.97 403.63 428.45C408.33 436.93 412.63 444.55 415.8 450.01L419.61 456.47L420.61 458.24C420.767 458.436 420.898 458.651 421 458.88Z" fill="#E0E0E0"/>
<path d="M484.67 427C484.484 427.157 484.275 427.286 484.05 427.38L482.2 428.33L475.38 431.76C469.63 434.66 461.72 438.76 452.99 443.28C444.26 447.8 436.31 451.84 430.49 454.62C427.58 456.01 425.22 457.11 423.57 457.84L421.66 458.67C421.444 458.778 421.216 458.859 420.98 458.91C421.17 458.758 421.378 458.631 421.6 458.53L423.45 457.58L430.26 454.15C436.02 451.26 443.93 447.15 452.66 442.63C461.39 438.11 469.34 434.07 475.15 431.29C478.06 429.9 480.43 428.8 482.08 428.07L483.98 427.25C484.198 427.136 484.43 427.052 484.67 427V427Z" fill="#E0E0E0"/>
<path d="M32.47 113.69C32.47 113.69 21.32 116.4 30.17 140.54C39.02 164.68 45.69 176.91 45.69 176.91C45.69 176.91 47.11 182.44 42.56 182.72C38.01 183 28.43 180.26 25.79 185.45C23.05 190.84 26.51 196.66 34.25 202.33C41.99 208 58.49 221.05 60 222.24C61.51 223.43 62.74 226.05 59.68 226.74C56.62 227.43 34.33 227.06 34.79 237.64C35.25 248.22 59.39 260.49 62 261.88C64.61 263.27 65.13 264.51 64.73 265.99C64.33 267.47 56.84 266.64 50.5 266.79C44.16 266.94 36.83 268.24 37.61 274.33C38.39 280.42 51.85 294.63 87.77 302.59L104.65 305.19L115.65 291.98C137.38 262.3 138.12 242.73 134.65 237.64C131.18 232.55 124.86 236.42 119.99 240.49C115.12 244.56 110.05 250.12 108.77 249.28C107.49 248.44 107.06 247.16 108.1 244.39C109.14 241.62 119.21 216.47 112.57 208.21C105.93 199.95 89.43 214.94 86.67 216.45C83.91 217.96 83.13 215.11 83.46 213.27C83.79 211.43 87.58 190.71 89.66 181.34C91.74 171.97 90.48 165.34 84.87 163.08C79.46 160.91 74.06 169.31 70.46 172.08C66.86 174.85 64.28 169.78 64.28 169.78C64.28 169.78 61.22 156.19 51.94 132.21C42.66 108.23 32.25 113.75 32.25 113.75" fill="#F6AD55"/>
<path d="M105.05 309.28C98.3 291.65 86.83 260.1 76.84 233.07C66.85 206.04 57.79 181.59 51.13 163.92C47.8 155.11 45.13 147.92 43.22 143.01C42.3 140.55 41.57 138.64 41.08 137.32C40.84 136.68 40.66 136.19 40.53 135.83C40.4 135.47 40.36 135.32 40.36 135.32C40.36 135.32 40.44 135.48 40.58 135.81L41.18 137.28L43.42 142.93C45.35 147.84 48.11 154.93 51.48 163.79C58.23 181.42 67.35 205.86 77.34 232.89C87.33 259.92 98.74 291.48 105.4 309.15" fill="#E0E0E0"/>
<path d="M39.06 189.83C39.4555 189.95 39.8375 190.111 40.2 190.31C40.92 190.64 41.95 191.15 43.2 191.79C45.72 193.08 49.2 194.96 52.94 197.09L62.56 202.59L65.48 204.24C65.8354 204.417 66.1707 204.631 66.48 204.88C66.0825 204.774 65.6996 204.62 65.34 204.42C64.62 204.09 63.59 203.58 62.34 202.92C59.82 201.6 56.4 199.69 52.64 197.55L43 192.12L40.07 190.49C39.7056 190.316 39.3659 190.094 39.06 189.83V189.83Z" fill="#E0E0E0"/>
<path d="M67.84 203.94C67.71 203.87 71.26 196.6 75.76 187.69C80.26 178.78 84.03 171.62 84.16 171.69C84.29 171.76 80.74 179.03 76.24 187.94C71.74 196.85 68 204 67.84 203.94Z" fill="#E0E0E0"/>
<path d="M81.31 246.14C81.5371 245.774 81.8093 245.438 82.12 245.14L84.46 242.64C86.46 240.52 89.15 237.64 92.02 234.24C94.89 230.84 97.41 227.78 99.2 225.51L101.33 222.82C101.574 222.476 101.852 222.158 102.16 221.87C101.978 222.249 101.757 222.607 101.5 222.94C101.04 223.61 100.37 224.57 99.5 225.74C97.78 228.07 95.32 231.23 92.43 234.59C89.54 237.95 86.78 240.85 84.73 242.9C83.73 243.9 82.87 244.74 82.27 245.29C81.9787 245.604 81.6572 245.889 81.31 246.14V246.14Z" fill="#E0E0E0"/>
<path d="M52.46 239.11C52.852 239.113 53.242 239.166 53.62 239.27L56.73 239.9C59.34 240.45 62.95 241.25 66.93 242.17C70.91 243.09 74.51 243.94 77.1 244.59L80.17 245.38C80.5523 245.458 80.9246 245.579 81.28 245.74C80.8913 245.737 80.5047 245.684 80.13 245.58L77 245C74.38 244.45 70.77 243.65 66.79 242.73C62.81 241.81 59.22 240.96 56.62 240.31L53.55 239.52C53.1715 239.428 52.8054 239.29 52.46 239.11V239.11Z" fill="#E0E0E0"/>
<path d="M59.62 277.87C60.115 277.905 60.6065 277.978 61.09 278.09L65.09 278.88C68.45 279.57 73.09 280.56 78.19 281.69C83.29 282.82 87.93 283.86 91.26 284.64L95.26 285.64C95.7514 285.737 96.2333 285.878 96.7 286.06C96.2003 286.039 95.7043 285.965 95.22 285.84L91.22 285.05C87.86 284.36 83.22 283.37 78.12 282.24C73.02 281.11 68.34 280 65 279.25L61 278.25C60.5281 278.171 60.0656 278.044 59.62 277.87V277.87Z" fill="#E0E0E0"/>
<path d="M95.81 285.58C96.103 285.133 96.4379 284.714 96.81 284.33L99.66 281.05C102.07 278.27 105.37 274.43 108.91 270.05C112.45 265.67 115.55 261.69 117.77 258.77L120.41 255.31C120.707 254.872 121.042 254.461 121.41 254.08C121.17 254.554 120.889 255.005 120.57 255.43C119.99 256.29 119.14 257.51 118.06 259C115.91 262 112.85 266 109.31 270.39C105.77 274.78 102.41 278.55 99.93 281.27C98.69 282.62 97.67 283.71 96.93 284.44C96.5854 284.847 96.2111 285.228 95.81 285.58V285.58Z" fill="#E0E0E0"/>
<path d="M465.14 477.48C465.14 477.63 368.81 477.74 250.01 477.74C131.21 477.74 34.86 477.63 34.86 477.48C34.86 477.33 131.17 477.22 250.01 477.22C368.85 477.22 465.14 477.34 465.14 477.48Z" fill="#263238"/>
<path d="M418.6 65.58H389.6C387.696 65.6297 385.89 66.4326 384.578 67.8124C383.266 69.1922 382.554 71.0363 382.6 72.94V78.2C382.646 80.1036 381.934 81.9477 380.622 83.3275C379.31 84.7073 377.504 85.5102 375.6 85.56H319.05C317.139 85.5127 315.325 84.711 314.004 83.3299C312.683 81.9488 311.962 80.1008 312 78.19V72.88C312.038 70.9785 311.324 69.139 310.013 67.7609C308.702 66.3828 306.901 65.5775 305 65.52H294.8H269.41C263.353 65.52 257.544 67.9246 253.26 72.2055C248.975 76.4864 246.565 82.2932 246.56 88.35L246.49 454.52C246.49 460.573 248.894 466.378 253.173 470.66C257.452 474.941 263.257 477.347 269.31 477.35L418.65 477.44C421.648 477.443 424.618 476.854 427.389 475.709C430.16 474.563 432.678 472.883 434.799 470.763C436.92 468.644 438.603 466.127 439.751 463.357C440.899 460.587 441.49 457.618 441.49 454.62L441.56 88.44C441.564 85.4284 440.972 82.4458 439.818 79.6639C438.665 76.8821 436.972 74.356 434.838 72.2311C432.704 70.1063 430.17 68.4247 427.384 67.2832C424.597 66.1417 421.612 65.5628 418.6 65.58Z" fill="white"/>
<path d="M418.6 65.58C418.6 65.58 418.86 65.58 419.38 65.58C420.153 65.5787 420.925 65.6355 421.69 65.75C424.727 66.1327 427.648 67.1552 430.26 68.75C432.196 69.886 433.95 71.3088 435.46 72.97C437.308 74.9636 438.781 77.2738 439.81 79.79C440.997 82.7339 441.578 85.8865 441.52 89.06C441.52 92.43 441.52 96.06 441.52 99.82C441.52 130.24 441.57 174.25 441.6 228.62C441.63 282.99 441.6 347.76 441.6 419.62V453.84C441.654 456.203 441.361 458.562 440.73 460.84C440.093 463.124 439.108 465.296 437.81 467.28C436.487 469.255 434.888 471.03 433.06 472.55C429.305 475.591 424.693 477.381 419.87 477.67C415.09 477.81 410.33 477.67 405.53 477.73H376.49H316.82H270.89C265.602 478 260.371 476.528 256 473.54C251.675 470.508 248.503 466.103 247 461.04C246.287 458.531 245.967 455.927 246.05 453.32V445.62C246.05 435.38 246.05 425.203 246.05 415.09C246.05 394.89 246.05 374.997 246.05 355.41C246.05 316.28 246.05 278.54 246.05 242.58C246.05 206.62 246.05 172.46 246.05 140.48C246.05 124.48 246.05 109.06 246.05 94.22C246.05 92.36 246.05 90.51 246.05 88.68C246.05 87.76 246.13 86.83 246.18 85.91C246.23 84.99 246.41 84.08 246.64 83.19C247.464 79.6316 249.112 76.3162 251.45 73.51C253.72 70.8106 256.577 68.6652 259.802 67.2372C263.027 65.8092 266.535 65.1364 270.06 65.27H289.96H304.22C305.816 65.1849 307.396 65.6238 308.72 66.52C310.007 67.4254 310.982 68.7076 311.51 70.19C311.948 71.6504 312.105 73.1811 311.97 74.7V77C311.948 77.7274 311.971 78.4555 312.04 79.18C312.254 80.6078 312.891 81.9386 313.87 83C314.78 84.0663 316 84.8216 317.36 85.16C318.031 85.3208 318.72 85.3914 319.41 85.37H329.76H359.86H373.13C374.18 85.37 375.25 85.37 376.24 85.37C377.232 85.2458 378.185 84.9044 379.03 84.37C379.843 83.8548 380.544 83.1825 381.094 82.3926C381.643 81.6027 382.03 80.7111 382.23 79.77C382.395 78.8531 382.455 77.9205 382.41 76.99C382.41 76.07 382.41 75.16 382.41 74.26C382.37 73.3715 382.41 72.4812 382.53 71.6C382.674 70.7432 382.965 69.9178 383.39 69.16C384.198 67.726 385.472 66.611 387 66C388.466 65.5379 390.01 65.3747 391.54 65.52H406.35H415.45H418.56H415.45H406.35H391.54C390.08 65.52 388.54 65.37 387.08 66.01C385.577 66.6134 384.329 67.7196 383.55 69.14C383.145 69.8826 382.865 70.6866 382.72 71.52C382.612 72.3889 382.575 73.2651 382.61 74.14C382.61 75.04 382.61 75.95 382.61 76.87C382.649 77.817 382.589 78.7655 382.43 79.7C382.225 80.6745 381.827 81.5984 381.26 82.4174C380.694 83.2364 379.97 83.9342 379.13 84.47C378.246 85.015 377.252 85.3566 376.22 85.47C375.16 85.56 374.14 85.47 373.08 85.47H319.41C318.687 85.4984 317.964 85.4277 317.26 85.26C315.823 84.9079 314.535 84.1097 313.58 82.98C312.598 81.8528 311.968 80.4619 311.77 78.98C311.708 78.322 311.684 77.6608 311.7 77V74.74C311.824 73.268 311.672 71.7858 311.25 70.37C310.753 68.9667 309.83 67.7536 308.61 66.9C307.352 66.0548 305.854 65.6407 304.34 65.72H270.18C266.722 65.5897 263.28 66.2518 260.117 67.6557C256.954 69.0596 254.153 71.1681 251.93 73.82C249.647 76.5697 248.04 79.8167 247.24 83.3C247.01 84.17 246.94 85.07 246.78 85.96C246.62 86.85 246.67 87.76 246.66 88.68V94.22C246.66 109.06 246.66 124.48 246.66 140.48C246.66 172.48 246.66 206.63 246.66 242.58V355.41C246.66 374.97 246.66 394.863 246.66 415.09V453.32C246.573 455.866 246.884 458.41 247.58 460.86C249.059 465.787 252.16 470.069 256.38 473.01C260.642 475.901 265.738 477.307 270.88 477.01H286.3H316.81H376.48H405.56C410.35 477.01 415.15 477.09 419.87 476.95C424.564 476.666 429.051 474.917 432.7 471.95C434.483 470.472 436.042 468.744 437.33 466.82C438.591 464.891 439.549 462.78 440.17 460.56C440.782 458.347 441.068 456.056 441.02 453.76C441.02 451.44 441.02 449.14 441.02 446.83C441.02 437.63 441.02 428.533 441.02 419.54C441.02 347.65 441.09 282.89 441.12 228.54C441.15 174.19 441.22 130.16 441.25 99.74C441.25 95.94 441.25 92.35 441.25 88.98C441.315 85.8324 440.747 82.7038 439.58 79.78C438.567 77.2817 437.114 74.9854 435.29 73C431.722 69.0687 426.888 66.5137 421.63 65.78C420.868 65.6619 420.1 65.5918 419.33 65.57C418.86 65.61 418.6 65.58 418.6 65.58Z" fill="#263238"/>
<path d="M283.39 102.56C283.39 102.65 279.61 102.77 274.96 102.8C270.31 102.83 266.53 102.8 266.53 102.7C266.53 102.6 270.3 102.49 274.96 102.45C279.62 102.41 283.39 102.46 283.39 102.56Z" fill="#263238"/>
<path d="M283.42 106.87C283.42 106.97 279.65 107.08 275 107.12C270.35 107.16 266.57 107.12 266.57 107.01C266.57 106.9 270.34 106.8 274.99 106.76C279.64 106.72 283.42 106.77 283.42 106.87Z" fill="#263238"/>
<path d="M283.46 111.18C283.46 111.28 279.69 111.39 275.03 111.43C270.37 111.47 266.6 111.43 266.6 111.32C266.6 111.21 270.37 111.11 275.03 111.07C279.69 111.03 283.46 111.08 283.46 111.18Z" fill="#263238"/>
<path d="M338.74 384.9H263.69V459.95H338.74V384.9Z" fill="#F5F5F5"/>
<path d="M329.88 427.84C323.77 419.31 310.8 413.47 300.26 415.04C291.72 416.31 284.16 420.28 280.02 428.76C279.742 429.313 279.603 429.926 279.612 430.545C279.622 431.164 279.78 431.771 280.075 432.316C280.369 432.861 280.791 433.326 281.303 433.674C281.816 434.021 282.405 434.239 283.02 434.31C297.249 436.009 311.632 435.962 325.85 434.17C328.04 433.89 330.65 433.28 330.8 430.57C330.814 429.582 330.489 428.618 329.88 427.84Z" fill="#FFC100"/>
<g opacity="0.5">
<path opacity="0.5" d="M329.88 427.84C323.77 419.31 310.8 413.47 300.26 415.04C291.72 416.31 284.16 420.28 280.02 428.76" fill="white"/>
</g>
<path d="M296.14 427.41C296.09 427.41 295.65 427.02 295.07 426.22C294.295 425.162 293.744 423.958 293.45 422.68C293.2 421.409 293.093 420.115 293.13 418.82C293.085 418.286 293.129 417.749 293.26 417.23C293.426 417.74 293.507 418.274 293.5 418.81C293.567 420.069 293.718 421.321 293.95 422.56C294.247 423.778 294.726 424.944 295.37 426.02C295.685 426.449 295.943 426.916 296.14 427.41V427.41Z" fill="#F5F5F5"/>
<path d="M305.19 427C305.04 427 305.26 424.58 304.94 421.64C304.62 418.7 303.94 416.39 304.07 416.34C305.54 419.691 305.931 423.416 305.19 427V427Z" fill="#F5F5F5"/>
<path d="M314.55 425.61C314.4 425.55 315.11 423.94 315.28 421.82C315.45 419.7 315.06 417.99 315.21 417.95C315.713 419.188 315.915 420.528 315.8 421.859C315.686 423.191 315.257 424.476 314.55 425.61V425.61Z" fill="#F5F5F5"/>
<g opacity="0.3">
<path opacity="0.3" d="M303.53 415.44L303.61 415.59L303.53 415.44Z" fill="black"/>
</g>
<path d="M339.61 142.29H263.69V256.1H339.61V142.29Z" fill="#F5F5F5"/>
<path d="M339.61 264.68H263.69V378.49H339.61V264.68Z" fill="#F5F5F5"/>
<path d="M422.76 243.19H346.84V349.45H422.76V243.19Z" fill="#F5F5F5"/>
<path d="M422.14 356.92H346.22V459.94H422.14V356.92Z" fill="#F5F5F5"/>
<path d="M422.76 142.29H346.84V236.29H422.76V142.29Z" fill="#F5F5F5"/>
<path d="M313.58 176.32V207.87C313.58 209.25 312.47 210.68 310.43 211.76C307.696 213.044 304.699 213.667 301.68 213.58H301.63C294.18 213.58 289.73 210.64 289.73 207.87V176.26C289.73 173.18 292 169.97 294.28 166.79C295.81 164.67 296.18 161.62 296.28 159.79C296.28 159.58 296.28 159.39 296.28 159.21H296.07C295.633 159.243 295.2 159.102 294.866 158.817C294.533 158.532 294.326 158.127 294.29 157.69V156.36C294.323 155.92 294.529 155.512 294.863 155.223C295.196 154.935 295.63 154.79 296.07 154.82H307.26C307.592 154.81 307.921 154.892 308.21 155.056C308.499 155.22 308.738 155.46 308.9 155.75C308.992 155.94 309.04 156.149 309.04 156.36V157.69C309.002 158.126 308.794 158.53 308.461 158.814C308.128 159.098 307.697 159.241 307.26 159.21H307C307 159.39 307 159.58 307 159.79C307.07 161.59 307.44 164.64 309 166.79C311.28 169.97 313.54 173.18 313.55 176.26L313.58 176.32Z" fill="#FAFAFA"/>
<path d="M313.58 176.32V176C313.553 175.685 313.51 175.371 313.45 175.06C313.182 173.867 312.737 172.721 312.13 171.66C311.154 169.972 310.075 168.346 308.9 166.79C307.524 164.517 306.83 161.896 306.9 159.24V159.06H307C307.394 159.12 307.796 159.031 308.129 158.811C308.461 158.591 308.701 158.256 308.8 157.87C308.8 157.47 308.8 156.98 308.8 156.53C308.824 156.324 308.795 156.114 308.717 155.922C308.638 155.73 308.512 155.56 308.35 155.43C308.008 155.155 307.578 155.017 307.14 155.04H302.63H296.19C295.939 155.018 295.686 155.049 295.449 155.132C295.211 155.215 294.993 155.347 294.81 155.52C294.644 155.694 294.533 155.913 294.49 156.15C294.474 156.423 294.474 156.697 294.49 156.97C294.49 157.25 294.49 157.58 294.49 157.81C294.522 158.054 294.63 158.282 294.8 158.46C294.986 158.648 295.213 158.791 295.462 158.879C295.711 158.968 295.977 158.999 296.24 158.97H296.47V159.22C296.458 160.511 296.318 161.797 296.05 163.06C295.79 164.385 295.278 165.649 294.54 166.78C292.858 168.919 291.469 171.273 290.41 173.78C290.184 174.427 290.037 175.098 289.97 175.78C289.97 176.45 289.97 177.19 289.97 177.9V182.24C289.97 185.173 289.97 188.147 289.97 191.16C289.97 196.46 289.97 201.64 289.97 206.64C289.939 207.241 289.966 207.844 290.05 208.44C290.195 208.999 290.481 209.512 290.88 209.93C291.694 210.795 292.682 211.477 293.78 211.93C295.942 212.797 298.242 213.268 300.57 213.32C302.787 213.435 305.009 213.237 307.17 212.73C309.21 212.327 311.083 211.324 312.55 209.85C312.864 209.488 313.102 209.066 313.25 208.61C313.362 208.146 313.403 207.667 313.37 207.19V204.29C313.37 202.39 313.37 200.57 313.37 198.83C313.37 191.9 313.43 186.29 313.45 182.37C313.45 180.45 313.45 178.95 313.45 177.89C313.45 176.83 313.5 176.33 313.5 176.33C313.552 176.848 313.572 177.369 313.56 177.89C313.56 178.95 313.56 180.45 313.61 182.37C313.61 186.29 313.61 191.9 313.69 198.83C313.69 200.57 313.69 202.39 313.69 204.29V207.19C313.728 207.706 313.688 208.226 313.57 208.73C313.407 209.244 313.142 209.721 312.79 210.13C311.27 211.673 309.317 212.719 307.19 213.13C304.988 213.66 302.722 213.872 300.46 213.76C298.06 213.713 295.689 213.232 293.46 212.34C292.295 211.873 291.245 211.16 290.38 210.25C289.927 209.767 289.6 209.18 289.43 208.54C289.333 207.905 289.3 207.262 289.33 206.62C289.33 201.62 289.33 196.44 289.33 191.14C289.33 188.12 289.33 185.147 289.33 182.22V177.88C289.33 177.15 289.33 176.47 289.33 175.72C289.395 174.997 289.55 174.285 289.79 173.6C290.866 171.051 292.283 168.659 294 166.49C295.288 164.285 295.932 161.763 295.86 159.21L296.1 159.45C295.772 159.478 295.442 159.432 295.134 159.316C294.826 159.2 294.548 159.017 294.32 158.78C294.087 158.532 293.937 158.217 293.89 157.88C293.89 157.53 293.89 157.28 293.89 156.98C293.871 156.684 293.871 156.386 293.89 156.09C293.949 155.761 294.106 155.458 294.34 155.22C294.563 155.002 294.83 154.834 295.123 154.727C295.416 154.62 295.729 154.577 296.04 154.6H302.48H306.99C307.516 154.584 308.031 154.758 308.44 155.09C308.639 155.26 308.796 155.474 308.897 155.715C308.998 155.957 309.04 156.219 309.02 156.48C309.02 156.95 309.02 157.37 309.02 157.87C308.91 158.34 308.629 158.752 308.231 159.026C307.834 159.299 307.348 159.415 306.87 159.35L307.04 159.18C306.944 161.776 307.597 164.345 308.92 166.58C310.081 168.159 311.143 169.809 312.1 171.52C312.698 172.602 313.117 173.774 313.34 174.99C313.391 175.304 313.421 175.622 313.43 175.94C313.504 176.056 313.555 176.185 313.58 176.32V176.32Z" fill="#263238"/>
<path d="M306.41 159.17C303.086 159.519 299.734 159.519 296.41 159.17C299.734 158.82 303.086 158.82 306.41 159.17V159.17Z" fill="#263238"/>
<path d="M312.58 180.53C312.044 180.268 311.452 180.145 310.856 180.171C310.26 180.197 309.681 180.372 309.17 180.68C308.148 181.302 307.044 181.776 305.89 182.09C304.482 182.22 303.071 181.868 301.89 181.09C300.711 180.321 299.47 179.652 298.18 179.09C296.899 178.654 295.521 178.587 294.204 178.897C292.887 179.206 291.683 179.88 290.73 180.84V207.84C290.73 207.84 292.22 212.45 302.68 211.73C313.14 211.01 312.31 206.39 312.31 206.39L312.58 180.53Z" fill="#FFC100"/>
<path d="M393.41 395.25V426.54C393.41 427.92 392.31 429.33 390.27 430.41C387.557 431.691 384.579 432.311 381.58 432.22C374.17 432.22 369.75 429.29 369.75 426.54V395.29C369.75 395.29 369.75 395.29 369.75 395.22C369.75 392.16 372.01 388.97 374.27 385.82C375.8 383.71 376.16 380.67 376.27 378.89C376.27 378.68 376.27 378.49 376.27 378.32H376C375.564 378.35 375.134 378.208 374.803 377.923C374.472 377.639 374.266 377.235 374.23 376.8V375.48C374.263 375.044 374.468 374.639 374.8 374.354C375.132 374.068 375.564 373.927 376 373.96H387.12C387.45 373.949 387.777 374.029 388.064 374.191C388.351 374.354 388.589 374.592 388.75 374.88C388.838 375.068 388.882 375.273 388.88 375.48V376.8C388.847 377.234 388.643 377.638 388.313 377.923C387.984 378.208 387.555 378.35 387.12 378.32H386.91C386.91 378.49 386.91 378.68 386.91 378.89C386.98 380.67 387.34 383.71 388.86 385.82C391.13 388.97 393.37 392.16 393.39 395.22C393.42 395.21 393.41 395.23 393.41 395.25Z" fill="#FAFAFA"/>
<path d="M393.41 395.25C393.417 395.143 393.417 395.037 393.41 394.93C393.388 394.615 393.348 394.301 393.29 393.99C393.023 392.808 392.581 391.672 391.98 390.62C391.012 388.939 389.936 387.323 388.76 385.78C387.389 383.523 386.695 380.92 386.76 378.28V378.09H386.93C387.322 378.149 387.721 378.06 388.05 377.84C388.38 377.619 388.615 377.284 388.71 376.9C388.71 376.51 388.71 376.02 388.71 375.57C388.729 375.365 388.698 375.159 388.619 374.97C388.541 374.78 388.418 374.612 388.26 374.48C387.92 374.21 387.494 374.072 387.06 374.09H382.58H376.18C375.931 374.068 375.679 374.099 375.443 374.182C375.207 374.265 374.991 374.397 374.81 374.57C374.642 374.743 374.53 374.962 374.49 375.2C374.474 375.47 374.474 375.74 374.49 376.01C374.49 376.28 374.49 376.61 374.49 376.84C374.522 377.084 374.63 377.312 374.8 377.49C374.984 377.674 375.207 377.815 375.453 377.902C375.699 377.988 375.961 378.018 376.22 377.99H376.46V378.24C376.448 379.521 376.308 380.797 376.04 382.05C375.784 383.366 375.274 384.619 374.54 385.74C372.865 387.878 371.486 390.233 370.44 392.74C370.212 393.386 370.067 394.058 370.01 394.74C370.01 395.4 370.01 396.14 370.01 396.84C370.01 398.26 370.01 399.7 370.01 401.16V410C370.01 415.27 370.01 420.42 370.01 425.39C369.98 425.985 370.006 426.581 370.09 427.17C370.238 427.728 370.523 428.241 370.92 428.66C371.729 429.521 372.71 430.203 373.8 430.66C375.937 431.499 378.205 431.953 380.5 432C382.704 432.115 384.912 431.916 387.06 431.41C389.087 431.016 390.948 430.019 392.4 428.55C392.714 428.191 392.952 427.773 393.1 427.32C393.208 426.858 393.245 426.383 393.21 425.91C393.21 424.91 393.21 423.97 393.21 423.03C393.21 421.14 393.21 419.34 393.21 417.61C393.21 410.72 393.27 405.14 393.29 401.25C393.29 399.34 393.29 397.85 393.34 396.81C393.39 395.77 393.34 395.26 393.34 395.26C393.4 395.774 393.42 396.293 393.4 396.81C393.4 397.81 393.4 399.34 393.4 401.25C393.4 405.14 393.45 410.72 393.49 417.61C393.49 419.34 393.49 421.14 393.49 423.03C393.49 423.97 393.49 424.93 393.49 425.91C393.529 426.424 393.485 426.94 393.36 427.44C393.199 427.95 392.937 428.423 392.59 428.83C391.082 430.368 389.144 431.414 387.03 431.83C384.842 432.359 382.589 432.571 380.34 432.46C377.967 432.411 375.623 431.933 373.42 431.05C372.316 430.575 371.322 429.877 370.5 429C370.052 428.519 369.729 427.935 369.56 427.3C369.463 426.672 369.43 426.035 369.46 425.4V396.82C369.46 396.1 369.46 395.42 369.46 394.68C369.526 393.957 369.681 393.245 369.92 392.56C370.989 390.032 372.395 387.66 374.1 385.51C375.374 383.318 376.015 380.815 375.95 378.28L376.18 378.51C375.856 378.537 375.53 378.492 375.226 378.377C374.922 378.263 374.646 378.083 374.42 377.85C374.186 377.603 374.039 377.288 374 376.95C374 376.61 374 376.36 374 376.06C373.981 375.764 373.981 375.466 374 375.17C374.063 374.846 374.22 374.547 374.45 374.31C374.672 374.093 374.937 373.926 375.229 373.819C375.52 373.712 375.831 373.668 376.14 373.69H382.54H387.02C387.544 373.672 388.056 373.847 388.46 374.18C388.659 374.348 388.815 374.561 388.915 374.8C389.016 375.04 389.059 375.301 389.04 375.56C389.04 376.03 389.04 376.45 389.04 376.94C388.918 377.401 388.636 377.804 388.244 378.076C387.851 378.347 387.375 378.469 386.9 378.42L387.07 378.25C386.977 380.824 387.622 383.371 388.93 385.59C390.091 387.154 391.147 388.795 392.09 390.5C392.686 391.576 393.104 392.741 393.33 393.95C393.384 394.26 393.41 394.575 393.41 394.89C393.44 395.14 393.43 395.25 393.41 395.25Z" fill="#263238"/>
<path d="M386.29 378.2C382.999 378.547 379.681 378.547 376.39 378.2C379.681 377.853 382.999 377.853 386.29 378.2V378.2Z" fill="#263238"/>
<path d="M392.42 399.43C391.889 399.167 391.3 399.042 390.707 399.066C390.115 399.09 389.538 399.264 389.03 399.57C388.017 400.189 386.924 400.663 385.78 400.98C384.372 401.106 382.963 400.754 381.78 399.98C380.61 399.209 379.375 398.54 378.09 397.98C376.818 397.549 375.451 397.485 374.144 397.794C372.837 398.104 371.644 398.775 370.7 399.73V426.59C370.7 426.59 372.17 431.18 382.56 430.46C392.95 429.74 392.14 425.15 392.14 425.15L392.42 399.43Z" fill="#FFC100"/>
<g opacity="0.5">
<path opacity="0.5" d="M392.42 399.43C391.889 399.167 391.3 399.042 390.707 399.066C390.115 399.09 389.538 399.264 389.03 399.57C388.017 400.189 386.924 400.663 385.78 400.98C384.372 401.106 382.963 400.754 381.78 399.98C380.61 399.209 379.375 398.54 378.09 397.98C376.818 397.549 375.451 397.485 374.144 397.794C372.837 398.104 371.644 398.775 370.7 399.73V426.59C370.7 426.59 372.17 431.18 382.56 430.46C392.95 429.74 392.14 425.15 392.14 425.15L392.42 399.43Z" fill="white"/>
</g>
<path d="M409.69 281.54C409.348 281.4 408.976 281.349 408.609 281.391C408.242 281.433 407.892 281.567 407.59 281.78C407.44 281.88 407.28 282 407.13 282.12C402.054 285.874 395.883 287.852 389.57 287.75C377.28 287.75 367.1 280.86 365.28 271.86V270.16C365.295 269.99 365.275 269.818 365.221 269.656C365.166 269.494 365.078 269.346 364.963 269.22C364.848 269.093 364.708 268.993 364.551 268.924C364.395 268.855 364.226 268.819 364.055 268.819C363.884 268.819 363.715 268.855 363.559 268.924C363.402 268.993 363.262 269.093 363.147 269.22C363.032 269.346 362.944 269.494 362.889 269.656C362.835 269.818 362.815 269.99 362.83 270.16V274.92C362.838 275.033 362.861 275.144 362.9 275.25C362.055 277.117 361.609 279.14 361.59 281.19C361.59 291.58 372.59 300.02 386.2 300.02C397.61 300.02 407.2 294.09 410 286.02C410.034 285.985 410.055 285.939 410.06 285.89C410.384 285.246 410.565 284.54 410.59 283.82C410.664 283.394 410.62 282.956 410.461 282.553C410.302 282.151 410.035 281.8 409.69 281.54V281.54Z" fill="#FFC100"/>
<g opacity="0.3">
<path opacity="0.3" d="M364.36 276.5C364.36 276.5 375.95 303.16 407.36 284.5C407.36 284.5 399.27 292.9 388.72 294.94C379.16 296.77 365 291.38 364.36 276.5Z" fill="black"/>
</g>
<path d="M410.55 282.88C410.36 283.34 409.61 283.47 408.88 283.16C408.15 282.85 407.71 282.22 407.88 281.76C408.05 281.3 408.82 281.18 409.55 281.49C410.28 281.8 410.75 282.42 410.55 282.88Z" fill="#263238"/>
<path d="M422.26 111C422.177 111.015 422.093 111.015 422.01 111H421.3H418.67L409.84 111.08H409.77V111.01C409.7 110.54 409.63 110.01 409.55 109.55C408.94 105.27 408.4 101.45 408.04 98.95H408.09H405.09C405.02 98.9586 404.95 98.9586 404.88 98.95H405.09H405.72H408.07H408.12V99C408.49 101.49 409.06 105.31 409.7 109.58C409.77 110.08 409.84 110.58 409.91 111.04L409.83 110.97H418.66H422.25L422.26 111Z" fill="#263238"/>
<path d="M409.46 108.5C409.46 108.5 409.46 108.5 409.53 108.5H409.71H410.42H413.08L422.24 108.41L422.16 108.48C422.42 106.93 422.71 105.26 423 103.54C423.15 102.65 423.3 101.77 423.45 100.94L423.53 101.04H412.73H408.44C408.39 101.04 408.37 101.04 408.37 101.04H408.67H409.53H412.73L423.53 100.95H423.63V101.05L423.19 103.64C422.89 105.37 422.6 107.04 422.34 108.64V108.7H422.27H413.11H409.49L409.46 108.5Z" fill="#263238"/>
<path d="M413 114.42C413 114.42 413 114.31 412.93 114.12C412.854 113.861 412.692 113.635 412.47 113.48C412.311 113.367 412.127 113.295 411.933 113.269C411.74 113.243 411.543 113.264 411.36 113.33C411.137 113.414 410.945 113.564 410.81 113.759C410.675 113.955 410.602 114.187 410.602 114.425C410.602 114.663 410.675 114.895 410.81 115.091C410.945 115.286 411.137 115.436 411.36 115.52C411.543 115.59 411.742 115.612 411.936 115.584C412.13 115.556 412.314 115.479 412.47 115.36C412.686 115.202 412.844 114.977 412.92 114.72C412.98 114.53 412.98 114.42 412.99 114.42C413.016 114.522 413.016 114.628 412.99 114.73C412.928 115.018 412.769 115.275 412.54 115.46C412.368 115.594 412.166 115.683 411.951 115.72C411.737 115.756 411.516 115.739 411.31 115.67C411.051 115.582 410.826 115.415 410.667 115.192C410.508 114.97 410.422 114.703 410.422 114.43C410.422 114.157 410.508 113.89 410.667 113.668C410.826 113.445 411.051 113.278 411.31 113.19C411.517 113.117 411.739 113.097 411.956 113.132C412.172 113.167 412.377 113.255 412.55 113.39C412.78 113.57 412.939 113.825 413 114.11C413.029 114.211 413.029 114.319 413 114.42Z" fill="#263238"/>
<path d="M421 114.37C421 114.37 421 114.26 420.93 114.08C420.856 113.819 420.693 113.593 420.47 113.44C420.312 113.325 420.128 113.251 419.934 113.225C419.74 113.199 419.543 113.221 419.36 113.29C419.195 113.343 419.043 113.431 418.916 113.55C418.789 113.668 418.69 113.814 418.627 113.975C418.563 114.137 418.536 114.31 418.547 114.483C418.559 114.657 418.609 114.825 418.694 114.977C418.779 115.128 418.896 115.259 419.038 115.359C419.179 115.46 419.342 115.527 419.513 115.557C419.684 115.587 419.859 115.579 420.026 115.533C420.194 115.486 420.349 115.404 420.48 115.29C420.697 115.126 420.858 114.899 420.94 114.64C420.99 114.45 420.99 114.34 421 114.34C421.026 114.442 421.026 114.548 421 114.65C420.943 114.937 420.787 115.195 420.56 115.38C420.369 115.531 420.139 115.625 419.897 115.652C419.656 115.68 419.411 115.639 419.191 115.535C418.971 115.432 418.784 115.269 418.651 115.064C418.519 114.86 418.445 114.623 418.44 114.38C418.44 114.108 418.523 113.842 418.678 113.618C418.834 113.395 419.054 113.224 419.31 113.13C419.515 113.057 419.736 113.037 419.951 113.072C420.166 113.107 420.369 113.195 420.54 113.33C420.775 113.505 420.935 113.762 420.99 114.05C421.024 114.153 421.027 114.265 421 114.37V114.37Z" fill="#263238"/>
<path d="M423.589 103.075C425.5 102.663 426.715 100.779 426.302 98.8681C425.89 96.957 424.006 95.7422 422.095 96.1547C420.184 96.5672 418.969 98.4508 419.382 100.362C419.794 102.273 421.678 103.488 423.589 103.075Z" fill="#FFC100"/>
<path d="M423.28 98.27V100.96H422.65V98.77H422.11V98.27H423.28Z" fill="white"/>
<path d="M395.52 425.59H292.15C284.484 425.59 278.27 431.804 278.27 439.47V446.13C278.27 453.796 284.484 460.01 292.15 460.01H395.52C403.186 460.01 409.4 453.796 409.4 446.13V439.47C409.4 431.804 403.186 425.59 395.52 425.59Z" fill="#FFC100"/>
<g opacity="0.3">
<path opacity="0.3" d="M395.52 425.59H292.15C284.484 425.59 278.27 431.804 278.27 439.47V446.13C278.27 453.796 284.484 460.01 292.15 460.01H395.52C403.186 460.01 409.4 453.796 409.4 446.13V439.47C409.4 431.804 403.186 425.59 395.52 425.59Z" fill="black"/>
</g>
<path d="M390.43 425.59H287.06C279.394 425.59 273.18 431.804 273.18 439.47V446.13C273.18 453.796 279.394 460.01 287.06 460.01H390.43C398.096 460.01 404.31 453.796 404.31 446.13V439.47C404.31 431.804 398.096 425.59 390.43 425.59Z" fill="#FFC100"/>
<path d="M334.8 440.91C334.8 442.67 333.52 443.74 331.41 443.74H329.41V446.21H328.25V438.07H331.43C333.52 438.07 334.8 439.14 334.8 440.91ZM333.64 440.91C333.64 439.74 332.86 439.08 331.37 439.08H329.37V442.73H331.37C332.86 442.73 333.64 442.07 333.64 440.91Z" fill="white"/>
<path d="M341.29 444.17H337L336.11 446.17H334.91L338.6 438.03H339.75L343.44 446.17H342.22L341.29 444.17ZM340.88 443.24L339.13 439.24L337.37 443.24H340.88Z" fill="white"/>
<path d="M347.24 443.39V446.21H346.09V443.37L342.86 438.07H344.1L346.7 442.36L349.32 438.07H350.47L347.24 443.39Z" fill="white"/>
<path d="M304.18 303.41C304.476 301.492 304.391 299.535 303.927 297.651C303.464 295.767 302.633 293.993 301.481 292.431C300.33 290.87 298.881 289.552 297.217 288.552C295.554 287.553 293.71 286.893 291.79 286.61C291.578 286.527 291.346 286.51 291.125 286.559C290.903 286.609 290.701 286.725 290.545 286.89C290.389 287.056 290.286 287.264 290.25 287.489C290.213 287.713 290.245 287.944 290.34 288.15C290.69 291.889 292.216 295.421 294.699 298.238C297.182 301.056 300.495 303.013 304.16 303.83" fill="#455A64"/>
<path d="M283.57 330.56C287.28 338.21 292.57 343.36 299.22 343.61C300.54 343.61 301.54 342.79 302.8 342.71C303.537 342.877 304.247 343.147 304.91 343.51C305.262 343.659 305.638 343.744 306.02 343.76C312.84 343.39 318.66 338.59 322.58 330.56C328.03 319.31 326.35 307.23 318.82 303.56C317.829 303.066 316.795 302.664 315.73 302.36C314.514 302.02 313.252 301.872 311.99 301.92C309.053 302.107 306.163 302.758 303.43 303.85L303.06 303.99C296.94 301.28 292.06 301.27 287.31 303.56C279.78 307.23 278.11 319.31 283.57 330.56Z" fill="#FFC100"/>
<path d="M283.7 319.17C283.347 318.465 283.136 317.697 283.08 316.91C282.856 315.007 283.086 313.079 283.75 311.282C284.414 309.485 285.493 307.87 286.9 306.57C287.449 306.003 288.109 305.557 288.84 305.26C288.89 305.33 288.14 305.82 287.15 306.83C285.874 308.15 284.886 309.72 284.248 311.441C283.609 313.163 283.334 314.997 283.44 316.83C283.54 318.28 283.79 319.14 283.7 319.17Z" fill="#FAFAFA"/>
<path d="M285.08 324.51C284.94 324.51 284.7 324.01 284.54 323.33C284.38 322.65 284.37 322.06 284.54 322.02C284.71 321.98 284.92 322.52 285.08 323.21C285.24 323.9 285.22 324.48 285.08 324.51Z" fill="#FAFAFA"/>
<path d="M319.75 285C319.75 285.1 318.33 285.64 316.21 286.91C314.974 287.66 313.794 288.498 312.68 289.42C311.348 290.573 310.117 291.838 309 293.2C307.874 294.577 306.87 296.049 306 297.6C305.316 298.871 304.727 300.191 304.24 301.55C303.41 303.89 303.17 305.41 303.07 305.39C303.063 305.026 303.103 304.663 303.19 304.31C303.244 303.888 303.328 303.47 303.44 303.06C303.562 302.513 303.712 301.972 303.89 301.44C304.331 300.036 304.896 298.673 305.58 297.37C307.263 294.169 309.576 291.343 312.38 289.06C313.515 288.139 314.726 287.316 316 286.6C316.489 286.319 316.993 286.065 317.51 285.84C317.89 285.651 318.281 285.484 318.68 285.34C319.022 285.185 319.381 285.071 319.75 285V285Z" fill="#263238"/>
<path d="M412.36 180.35C406.25 171.83 393.28 165.99 382.74 167.56C374.2 168.83 366.64 172.8 362.5 181.28C362.225 181.834 362.087 182.446 362.098 183.064C362.108 183.682 362.267 184.289 362.561 184.833C362.855 185.377 363.276 185.842 363.787 186.19C364.299 186.537 364.886 186.757 365.5 186.83C379.729 188.529 394.112 188.481 408.33 186.69C410.53 186.41 413.13 185.8 413.28 183.09C413.294 182.099 412.969 181.132 412.36 180.35Z" fill="#FFC100"/>
<path d="M378.62 179.93C378.57 179.93 378.13 179.54 377.55 178.74C376.777 177.681 376.226 176.477 375.93 175.2C375.68 173.929 375.573 172.635 375.61 171.34C375.572 170.803 375.616 170.264 375.74 169.74C375.91 170.249 375.991 170.783 375.98 171.32C376.051 172.582 376.205 173.838 376.44 175.08C376.728 176.301 377.207 177.469 377.86 178.54C378.172 178.969 378.427 179.436 378.62 179.93V179.93Z" fill="#263238"/>
<path d="M387.68 179.51C387.52 179.51 387.74 177.09 387.43 174.15C387.12 171.21 386.43 168.9 386.56 168.85C387.369 170.486 387.838 172.268 387.94 174.09C388.214 175.896 388.126 177.738 387.68 179.51Z" fill="#263238"/>
<path d="M397 178.13C396.86 178.07 397.56 176.45 397.73 174.33C397.9 172.21 397.51 170.5 397.66 170.47C398.163 171.708 398.365 173.048 398.25 174.379C398.136 175.711 397.707 176.996 397 178.13V178.13Z" fill="#263238"/>
<g opacity="0.3">
<path opacity="0.3" d="M386 168L386.08 168.15L386 168Z" fill="black"/>
</g>
<g opacity="0.3">
<path opacity="0.3" d="M386.09 168.11C385.156 169.821 384.798 171.787 385.068 173.718C385.338 175.649 386.222 177.441 387.59 178.83C388.475 175.196 387.938 171.361 386.09 168.11V168.11Z" fill="black"/>
</g>
<g opacity="0.3">
<path opacity="0.3" d="M377.39 178.43C376.42 176.671 375.84 174.723 375.69 172.72C375.701 171.835 375.572 170.955 375.31 170.11C374.258 171.418 373.74 173.076 373.86 174.75C374.002 176.509 374.828 178.142 376.16 179.3C376.359 179.486 376.599 179.623 376.86 179.7C376.992 179.732 377.13 179.724 377.257 179.675C377.384 179.627 377.493 179.542 377.57 179.43C377.75 179.12 377.57 178.74 377.39 178.43Z" fill="black"/>
</g>
<g opacity="0.3">
<path opacity="0.3" d="M397.85 171.26C397.815 170.91 397.713 170.571 397.55 170.26C397.466 170.109 397.34 169.985 397.188 169.903C397.035 169.822 396.862 169.786 396.69 169.8C396.22 169.88 395.99 170.41 395.85 170.87C395.063 172.843 394.825 174.992 395.16 177.09C395.27 177.56 395.58 178.09 396.07 178.09C396.56 178.09 396.69 177.69 396.86 177.36C397.819 175.48 398.165 173.347 397.85 171.26V171.26Z" fill="black"/>
</g>
<path d="M281.48 235.29V236.23H280.79V235.3C280.051 235.281 279.336 235.037 278.74 234.6L279.11 233.76C279.601 234.121 280.183 234.339 280.79 234.39V232.72C279.86 232.49 278.86 232.19 278.86 231.02C278.86 230.17 279.48 229.42 280.79 229.3V228.3H281.48V229.23C282.08 229.259 282.663 229.434 283.18 229.74L282.83 230.59C282.417 230.347 281.957 230.194 281.48 230.14V231.83C282.41 232.05 283.42 232.35 283.42 233.51C283.42 234.42 282.79 235.15 281.48 235.29ZM280.79 231.7V230.21C280.2 230.3 279.94 230.61 279.94 230.97C279.94 231.33 280.3 231.56 280.79 231.7ZM282.35 233.64C282.35 233.23 281.98 233.03 281.48 232.89V234.37C282.09 234.28 282.35 234 282.35 233.64Z" fill="#263238"/>
<path d="M288.43 229.36V235.22H287.34V230.27H286.1V229.36H288.43Z" fill="#263238"/>
<path d="M290.93 234.58C290.916 234.834 290.851 235.082 290.74 235.31L290.31 236.49H289.63L289.97 235.2C289.848 235.15 289.746 235.064 289.676 234.952C289.606 234.841 289.572 234.711 289.58 234.58C289.568 234.484 289.577 234.388 289.606 234.296C289.634 234.204 289.682 234.119 289.746 234.047C289.81 233.975 289.888 233.917 289.976 233.878C290.064 233.838 290.159 233.818 290.255 233.818C290.351 233.818 290.446 233.838 290.534 233.878C290.622 233.917 290.7 233.975 290.764 234.047C290.828 234.119 290.876 234.204 290.904 234.296C290.933 234.388 290.942 234.484 290.93 234.58V234.58Z" fill="#263238"/>
<path d="M295.9 233.42C295.9 234.42 295.16 235.31 293.58 235.31C292.793 235.322 292.023 235.084 291.38 234.63L291.84 233.78C292.335 234.162 292.945 234.366 293.57 234.36C294.34 234.36 294.81 234.02 294.81 233.46C294.81 232.9 294.44 232.55 293.23 232.55H291.82L292.12 229.36H295.56V230.27H293L292.87 231.63H293.43C295.21 231.63 295.9 232.38 295.9 233.42Z" fill="#263238"/>
<path d="M296.53 232.29C296.53 230.36 297.59 229.29 298.98 229.29C300.37 229.29 301.43 230.38 301.43 232.29C301.43 234.2 300.38 235.29 298.98 235.29C297.58 235.29 296.53 234.22 296.53 232.29ZM300.34 232.29C300.34 230.87 299.78 230.22 298.98 230.22C298.18 230.22 297.63 230.87 297.63 232.29C297.63 233.71 298.18 234.36 298.98 234.36C299.78 234.36 300.34 233.7 300.34 232.29Z" fill="#263238"/>
<path d="M325.67 242.69C325.67 242.84 314.92 242.95 301.67 242.95C288.42 242.95 277.67 242.84 277.67 242.69C277.67 242.54 288.42 242.43 301.67 242.43C314.92 242.43 325.67 242.55 325.67 242.69Z" fill="#263238"/>
<path d="M300 246.6C300 246.75 295 246.86 288.85 246.86C282.7 246.86 277.69 246.75 277.69 246.6C277.69 246.45 282.69 246.34 288.85 246.34C295.01 246.34 300 246.46 300 246.6Z" fill="#263238"/>
<path d="M365.65 211.31V212.25H365V211.32C364.28 211.29 363.585 211.05 363 210.63L363.37 209.78C363.857 210.15 364.44 210.372 365.05 210.42V208.74C364.12 208.52 363.12 208.21 363.12 207.05C363.12 206.2 363.74 205.45 365.05 205.32V204.38H365.74V205.31C366.341 205.331 366.927 205.507 367.44 205.82L367.09 206.66C366.677 206.417 366.217 206.264 365.74 206.21V207.9C366.67 208.13 367.68 208.42 367.68 209.59C367.59 210.44 367 211.18 365.65 211.31ZM364.96 207.73V206.24C364.36 206.33 364.11 206.63 364.11 207C364.11 207.37 364.47 207.59 365 207.73H364.96ZM366.52 209.66C366.52 209.25 366.15 209.06 365.65 208.92V210.4C366.26 210.31 366.52 210 366.52 209.66Z" fill="#263238"/>
<path d="M374.82 210.33V211.25H370.49V210.52L372.82 208.31C373.39 207.76 373.49 207.42 373.49 207.09C373.49 206.56 373.12 206.25 372.4 206.25C372.14 206.236 371.88 206.284 371.642 206.39C371.404 206.496 371.194 206.657 371.03 206.86L370.27 206.27C370.536 205.941 370.875 205.679 371.261 205.506C371.646 205.332 372.067 205.251 372.49 205.27C373.77 205.27 374.59 205.91 374.59 206.95C374.578 207.315 374.482 207.672 374.309 207.993C374.135 208.314 373.889 208.59 373.59 208.8L372.02 210.3L374.82 210.33Z" fill="#263238"/>
<path d="M376.87 210.61C376.854 210.86 376.79 211.105 376.68 211.33L376.25 212.51H375.57L375.91 211.23C375.787 211.181 375.683 211.094 375.612 210.983C375.54 210.872 375.505 210.742 375.51 210.61C375.51 210.43 375.582 210.257 375.709 210.129C375.837 210.002 376.01 209.93 376.19 209.93C376.37 209.93 376.543 210.002 376.671 210.129C376.798 210.257 376.87 210.43 376.87 210.61Z" fill="#263238"/>
<path d="M381.91 210.33V211.25H377.58V210.52L379.91 208.31C380.48 207.76 380.58 207.42 380.58 207.09C380.58 206.56 380.21 206.25 379.49 206.25C379.23 206.236 378.97 206.284 378.732 206.39C378.494 206.496 378.284 206.657 378.12 206.86L377.36 206.27C377.627 205.94 377.968 205.677 378.355 205.503C378.743 205.329 379.166 205.25 379.59 205.27C380.86 205.27 381.68 205.91 381.68 206.95C381.668 207.315 381.572 207.672 381.398 207.993C381.225 208.314 380.979 208.59 380.68 208.8L379.11 210.3L381.91 210.33Z" fill="#263238"/>
<path d="M386.8 209.45C386.8 210.45 386.06 211.33 384.48 211.33C383.693 211.347 382.921 211.108 382.28 210.65L382.74 209.81C383.234 210.187 383.839 210.387 384.46 210.38C385.24 210.38 385.7 210.04 385.7 209.49C385.7 208.94 385.34 208.57 384.13 208.57H382.71L383.02 205.38H386.46V206.3H383.94L383.81 207.65H384.37C386.11 207.65 386.8 208.41 386.8 209.45Z" fill="#263238"/>
<path d="M409.84 218.72C409.84 218.86 399.09 218.98 385.84 218.98C372.59 218.98 361.84 218.86 361.84 218.72C361.84 218.58 372.6 218.46 385.84 218.46C399.08 218.46 409.84 218.58 409.84 218.72Z" fill="#263238"/>
<path d="M384.19 222.63C384.19 222.77 379.19 222.89 373.03 222.89C366.87 222.89 361.88 222.77 361.88 222.63C361.88 222.49 366.88 222.37 373.03 222.37C379.18 222.37 384.19 222.49 384.19 222.63Z" fill="#263238"/>
<path d="M279.56 357V357.94H278.87V357C278.132 356.979 277.417 356.735 276.82 356.3L277.2 355.46C277.685 355.825 278.265 356.044 278.87 356.09V354.42C277.94 354.19 276.95 353.89 276.95 352.73C276.95 351.87 277.57 351.13 278.87 351V350.05H279.56V351C280.16 351.029 280.743 351.204 281.26 351.51L280.92 352.36C280.502 352.118 280.039 351.965 279.56 351.91V353.6C280.49 353.83 281.5 354.12 281.5 355.28C281.5 356.12 280.88 356.86 279.56 357ZM278.87 353.41V351.92C278.28 352.02 278.03 352.32 278.03 352.69C278.03 353.06 278.39 353.26 278.87 353.4V353.41ZM280.43 355.35C280.43 354.94 280.06 354.75 279.56 354.6V356.09C280.17 356 280.43 355.7 280.43 355.34V355.35Z" fill="#263238"/>
<path d="M284.48 354C284.48 352.07 285.54 351 286.93 351C288.32 351 289.38 352.08 289.38 354C289.38 355.92 288.33 357 286.93 357C285.53 357 284.48 355.92 284.48 354ZM288.29 354C288.29 352.59 287.73 351.93 286.93 351.93C286.13 351.93 285.58 352.59 285.58 354C285.58 355.41 286.13 356.07 286.93 356.07C287.73 356.07 288.29 355.41 288.29 354Z" fill="#263238"/>
<path d="M291.36 356.29C291.344 356.54 291.28 356.785 291.17 357.01L290.74 358.19H290.07L290.4 356.91C290.28 356.858 290.179 356.771 290.109 356.66C290.04 356.55 290.005 356.421 290.01 356.29C289.998 356.194 290.007 356.098 290.036 356.006C290.064 355.914 290.112 355.829 290.176 355.757C290.24 355.685 290.318 355.627 290.406 355.588C290.494 355.548 290.589 355.528 290.685 355.528C290.781 355.528 290.876 355.548 290.964 355.588C291.052 355.627 291.13 355.685 291.194 355.757C291.258 355.829 291.306 355.914 291.334 356.006C291.363 356.098 291.372 356.194 291.36 356.29V356.29Z" fill="#263238"/>
<path d="M296.33 355.12C296.33 356.12 295.59 357.01 294.01 357.01C293.223 357.027 292.451 356.788 291.81 356.33L292.27 355.48C292.762 355.86 293.368 356.065 293.99 356.06C294.77 356.06 295.23 355.72 295.23 355.16C295.23 354.6 294.87 354.25 293.66 354.25H292.24L292.55 351.06H296V352H293.48L293.35 353.36H293.91C295.64 353.33 296.33 354.08 296.33 355.12Z" fill="#263238"/>
<path d="M297 354C297 352.07 298.06 351 299.45 351C300.84 351 301.9 352.08 301.9 354C301.9 355.92 300.85 357 299.45 357C298.05 357 297 355.92 297 354ZM300.81 354C300.81 352.59 300.25 351.93 299.45 351.93C298.65 351.93 298.1 352.59 298.1 354C298.1 355.41 298.65 356.07 299.45 356.07C300.25 356.07 300.77 355.41 300.77 354H300.81Z" fill="#263238"/>
<path d="M323.76 364.4C323.76 364.54 313 364.66 299.76 364.66C286.52 364.66 275.76 364.54 275.76 364.4C275.76 364.26 286.51 364.14 299.76 364.14C313.01 364.14 323.76 364.25 323.76 364.4Z" fill="#263238"/>
<path d="M298.1 368.31C298.1 368.45 293.1 368.57 286.95 368.57C280.8 368.57 275.8 368.45 275.8 368.31C275.8 368.17 280.8 368.05 286.95 368.05C293.1 368.05 298.1 368.16 298.1 368.31Z" fill="#263238"/>
<path d="M361.75 325.26V326.2H361.07V325.27C360.328 325.251 359.61 325.007 359.01 324.57L359.39 323.73C359.878 324.096 360.461 324.315 361.07 324.36V322.69C360.14 322.46 359.14 322.16 359.14 321C359.14 320.14 359.76 319.4 361.07 319.27V318.32H361.75V319.25C362.35 319.279 362.933 319.454 363.45 319.76L363.11 320.61C362.693 320.367 362.23 320.213 361.75 320.16V321.85C362.68 322.08 363.69 322.37 363.69 323.53C363.69 324.39 363.07 325.13 361.75 325.26ZM361.07 321.67V320.18C360.47 320.28 360.22 320.58 360.22 320.95C360.22 321.32 360.58 321.53 361.07 321.67ZM362.62 323.61C362.62 323.2 362.25 323.01 361.75 322.86V324.35C362.36 324.25 362.62 324 362.62 323.61Z" fill="#263238"/>
<path d="M368.7 319.33V325.19H367.61V320.24H366.37V319.33H368.7Z" fill="#263238"/>
<path d="M371.21 324.56C371.194 324.81 371.13 325.055 371.02 325.28L370.59 326.46H369.91L370.24 325.18C370.12 325.128 370.019 325.041 369.949 324.93C369.88 324.82 369.845 324.691 369.85 324.56C369.85 324.38 369.922 324.207 370.049 324.079C370.177 323.952 370.35 323.88 370.53 323.88C370.71 323.88 370.883 323.952 371.011 324.079C371.138 324.207 371.21 324.38 371.21 324.56V324.56Z" fill="#263238"/>
<path d="M371.81 322.26C371.81 320.33 372.87 319.26 374.26 319.26C375.65 319.26 376.71 320.34 376.71 322.26C376.71 324.18 375.71 325.26 374.26 325.26C372.81 325.26 371.81 324.19 371.81 322.26ZM375.62 322.26C375.62 320.85 375.06 320.19 374.26 320.19C373.46 320.19 372.91 320.85 372.91 322.26C372.91 323.67 373.46 324.33 374.26 324.33C375.06 324.33 375.62 323.68 375.62 322.26Z" fill="#263238"/>
<path d="M377.45 322.26C377.45 320.33 378.51 319.26 379.9 319.26C381.29 319.26 382.35 320.34 382.35 322.26C382.35 324.18 381.3 325.26 379.9 325.26C378.5 325.26 377.45 324.19 377.45 322.26ZM381.26 322.26C381.26 320.85 380.7 320.19 379.9 320.19C379.1 320.19 378.55 320.85 378.55 322.26C378.55 323.67 379.1 324.33 379.9 324.33C380.7 324.33 381.26 323.68 381.26 322.26Z" fill="#263238"/>
<path d="M406 332.67C406 332.81 395.24 332.93 382 332.93C368.76 332.93 358 332.81 358 332.67C358 332.53 368.75 332.4 382 332.4C395.25 332.4 406 332.52 406 332.67Z" fill="#263238"/>
<path d="M380.29 336.58C380.29 336.72 375.29 336.84 369.14 336.84C362.99 336.84 357.99 336.72 357.99 336.58C357.99 336.44 362.99 336.31 369.14 336.31C375.29 336.31 380.29 336.43 380.29 336.58Z" fill="#263238"/>
<path d="M369.76 108.53C369.76 108.67 358.17 108.79 343.88 108.79C329.59 108.79 317.99 108.67 317.99 108.53C317.99 108.39 329.58 108.27 343.88 108.27C358.18 108.27 369.76 108.38 369.76 108.53Z" fill="#FFC100"/>
<path d="M32.6 419.05C31.053 419.113 29.5718 419.693 28.3934 420.698C27.215 421.702 26.4075 423.073 26.1 424.59C25.4502 427.029 24.9393 429.503 24.57 432C24.57 432 18.7 437.28 24.57 438.69C30.44 440.1 32.57 432.19 32.57 432.19L33.47 419.01L32.6 419.05Z" fill="#FFBE9D"/>
<path d="M91.38 318C91.38 318 109.72 256.41 111.59 253.76C114.67 249.37 144.36 236.17 144.36 236.17L152.36 219.93L201.67 212L213.9 227.74L248.27 253L245.87 340.12L244.59 400.95L251.1 476.89L95 476.6L102.06 460.6L109.47 322.48L91.38 318Z" fill="#FFC100"/>
<path d="M112.53 309.69C112.485 309.527 112.464 309.359 112.47 309.19C112.47 308.8 112.47 308.33 112.39 307.76C112.39 306.52 112.28 304.76 112.24 302.51C112.16 298.07 112.16 291.94 112.35 285.17C112.54 278.4 112.9 272.28 113.24 267.85C113.4 265.64 113.56 263.85 113.69 262.62L113.84 261.2C113.855 261.034 113.885 260.87 113.93 260.71C113.958 260.875 113.958 261.045 113.93 261.21C113.93 261.59 113.93 262.06 113.87 262.63C113.8 263.95 113.7 265.72 113.58 267.88C113.34 272.31 113.04 278.42 112.85 285.19C112.66 291.96 112.6 298.07 112.59 302.51C112.59 304.67 112.59 306.44 112.59 307.76C112.59 308.33 112.59 308.76 112.59 309.19C112.594 309.359 112.574 309.527 112.53 309.69V309.69Z" fill="#263238"/>
<g opacity="0.3">
<path opacity="0.3" d="M147.89 292C147.852 291.31 148.053 290.629 148.46 290.07C149.145 289.231 150.083 288.637 151.135 288.377C152.186 288.118 153.293 288.206 154.29 288.63C156.9 289.88 158.2 292.88 158.73 295.73C159.3 298.85 159.22 302.07 159.81 305.19C160.4 308.31 161.81 311.49 164.56 313.1C167.95 315.1 172.4 314.2 175.96 315.88C181.26 318.37 182.49 325.26 182.76 331.12C183.26 342.21 182.76 353.31 182.3 364.4L179.24 435.22L176.45 470.75L162.09 476.85L143.09 352L147.89 292Z" fill="black"/>
</g>
<path d="M152 281.88C151.892 281.972 151.766 282.04 151.63 282.08C151.239 282.22 150.82 282.261 150.41 282.2C149.659 282.067 148.958 281.731 148.383 281.229C147.809 280.726 147.382 280.077 147.15 279.35C146.841 278.354 146.743 277.306 146.86 276.27C146.992 275.111 147.186 273.959 147.44 272.82C147.92 270.4 148.44 267.76 149 264.99C150.12 259.44 151.16 254.42 151.94 250.79L152.94 246.5C153.037 245.97 153.174 245.449 153.35 244.94C153.329 245.479 153.259 246.014 153.14 246.54C152.93 247.65 152.67 249.11 152.35 250.87C151.66 254.51 150.67 259.54 149.55 265.09C148.98 267.86 148.44 270.5 147.95 272.91C147.46 275.32 146.95 277.5 147.54 279.24C147.742 279.919 148.12 280.533 148.637 281.018C149.153 281.503 149.789 281.842 150.48 282C150.989 282.073 151.508 282.032 152 281.88V281.88Z" fill="#263238"/>
<path d="M157.06 258.71C157.06 258.76 156.65 258.76 155.97 258.97C155.016 259.285 154.177 259.877 153.56 260.67C153.096 261.233 152.784 261.905 152.655 262.623C152.525 263.341 152.582 264.08 152.82 264.77C153.081 265.626 153.594 266.383 154.292 266.943C154.989 267.504 155.839 267.841 156.731 267.913C157.622 267.984 158.515 267.785 159.292 267.342C160.07 266.9 160.696 266.233 161.09 265.43C161.434 264.788 161.608 264.068 161.594 263.34C161.58 262.611 161.379 261.898 161.01 261.27C160.53 260.387 159.794 259.669 158.9 259.21C158.26 258.89 157.9 258.83 157.9 258.78C157.9 258.73 158 258.78 158.19 258.78C158.473 258.818 158.749 258.896 159.01 259.01C159.996 259.424 160.82 260.147 161.36 261.07C161.742 261.707 161.978 262.421 162.05 263.16C162.129 264.018 161.955 264.88 161.55 265.64C161.121 266.539 160.43 267.286 159.567 267.783C158.705 268.28 157.711 268.504 156.719 268.425C155.726 268.346 154.781 267.968 154.008 267.34C153.235 266.713 152.671 265.865 152.39 264.91C152.109 264.095 152.074 263.215 152.29 262.38C152.521 261.507 152.981 260.713 153.623 260.078C154.265 259.443 155.065 258.991 155.94 258.77C156.217 258.696 156.503 258.663 156.79 258.67C156.882 258.667 156.973 258.681 157.06 258.71V258.71Z" fill="#263238"/>
<path d="M173.85 322.38L83.69 306.06L41.6 315.3L135.78 332.25L173.85 322.38Z" fill="#FFC100"/>
<g opacity="0.6">
<path opacity="0.6" d="M173.85 322.38L83.69 306.06L41.6 315.3L135.78 332.25L173.85 322.38Z" fill="black"/>
</g>
<path d="M116.2 361.7C117.42 345.08 121.98 302.87 125.4 286.56C126.4 281.68 127.6 276.69 130.4 272.56C133.2 268.43 138.14 265.41 143.06 266.17C147.46 266.85 151 270.42 152.78 274.5C154.519 278.628 155.295 283.098 155.05 287.57C154.2 307.73 152.46 330.31 152.48 349" fill="#455A64"/>
<path d="M146.73 322.12C145.636 322.531 144.521 322.885 143.39 323.18C138.008 324.843 132.858 327.178 128.06 330.13C127.093 330.789 126.091 331.397 125.06 331.95C125.06 331.95 125.29 331.7 125.77 331.32C126.25 330.94 126.96 330.43 127.86 329.82C130.223 328.251 132.708 326.873 135.29 325.7C137.873 324.526 140.549 323.566 143.29 322.83C144.34 322.55 145.2 322.35 145.79 322.24C146.097 322.159 146.413 322.119 146.73 322.12Z" fill="#263238"/>
<path d="M148.23 302.94C148.23 303.02 146.88 303.32 144.72 303.99C139.082 305.723 133.816 308.49 129.19 312.15C127.42 313.55 126.39 314.51 126.33 314.45C126.517 314.176 126.735 313.924 126.98 313.7C127.42 313.24 128.09 312.61 128.98 311.87C131.243 309.935 133.715 308.258 136.35 306.87C138.986 305.486 141.766 304.396 144.64 303.62C145.506 303.378 146.384 303.181 147.27 303.03C147.584 302.951 147.907 302.921 148.23 302.94Z" fill="#263238"/>
<path d="M146.21 287.5C146.21 287.59 145.14 287.64 143.45 287.95C141.253 288.358 139.122 289.068 137.12 290.06C135.123 291.063 133.272 292.335 131.62 293.84C130.35 295 129.62 295.84 129.62 295.77C129.62 295.7 129.74 295.52 130.03 295.13C130.441 294.578 130.892 294.056 131.38 293.57C134.616 290.312 138.832 288.204 143.38 287.57C144.063 287.475 144.751 287.428 145.44 287.43C145.94 287.44 146.2 287.46 146.21 287.5Z" fill="#263238"/>
<path d="M135 335.58C134.995 335.61 134.995 335.64 135 335.67V393.37C135 395.9 133 398.51 129.21 400.49C125.42 402.47 120.01 403.82 113.21 403.83H113.12C99.47 403.83 91.31 398.44 91.31 393.37V335.67C91.3125 335.64 91.3125 335.61 91.31 335.58C91.31 335.58 91.31 335.51 91.31 335.47C91.31 329.83 95.48 323.94 99.66 318.12C102.46 314.24 103.13 308.64 103.26 305.36C103.26 304.96 103.26 304.61 103.26 304.29H102.88C102.483 304.324 102.082 304.279 101.703 304.156C101.323 304.034 100.972 303.837 100.669 303.577C100.367 303.318 100.119 303 99.9404 302.643C99.762 302.287 99.6565 301.898 99.63 301.5V299.06C99.6539 298.66 99.7576 298.269 99.9349 297.91C100.112 297.551 100.36 297.232 100.663 296.97C100.965 296.708 101.318 296.509 101.698 296.386C102.079 296.262 102.481 296.216 102.88 296.25H123.38C123.989 296.23 124.592 296.379 125.122 296.681C125.651 296.983 126.087 297.426 126.38 297.96C126.544 298.304 126.629 298.679 126.63 299.06V301.5C126.604 301.899 126.498 302.288 126.319 302.646C126.14 303.003 125.891 303.321 125.587 303.581C125.283 303.841 124.931 304.038 124.55 304.159C124.169 304.281 123.768 304.326 123.37 304.29H123C123 304.61 123 304.96 123 305.36C123.13 308.64 123.8 314.24 126.61 318.12C130.78 323.94 134.93 329.83 134.96 335.47C135 335.51 135 335.56 135 335.58Z" fill="#FAFAFA"/>
<path d="M135 335.58C135.013 335.384 135.013 335.186 135 334.99C134.963 334.413 134.893 333.839 134.79 333.27C134.31 331.076 133.504 328.966 132.4 327.01C130.625 323.905 128.654 320.915 126.5 318.06C125.227 316.176 124.318 314.069 123.82 311.85C123.227 309.377 122.918 306.843 122.9 304.3V304.12H123.08C123.838 304.171 124.594 303.993 125.25 303.61C125.58 303.419 125.864 303.158 126.081 302.845C126.299 302.532 126.445 302.176 126.51 301.8C126.51 301.03 126.51 300.16 126.51 299.33C126.545 298.929 126.482 298.527 126.327 298.156C126.172 297.785 125.929 297.457 125.62 297.2C124.966 296.67 124.14 296.399 123.3 296.44H115H103.19C102.705 296.397 102.217 296.459 101.758 296.621C101.299 296.783 100.88 297.042 100.53 297.38C100.196 297.727 99.9732 298.166 99.89 298.64C99.8641 299.15 99.8641 299.66 99.89 300.17C99.89 300.68 99.89 301.26 99.89 301.73C99.9605 302.216 100.177 302.669 100.51 303.03C100.867 303.394 101.302 303.672 101.781 303.845C102.261 304.019 102.773 304.082 103.28 304.03H103.52V304.28C103.504 306.633 103.249 308.978 102.76 311.28C102.275 313.675 101.338 315.955 100 318C98.59 320 97.14 322 95.8 324.12C94.4132 326.226 93.2725 328.484 92.4 330.85C91.9758 332.051 91.7036 333.301 91.59 334.57C91.52 335.82 91.59 337.16 91.59 338.46V362.76C91.59 372.47 91.59 381.96 91.59 391.12C91.5358 392.239 91.5893 393.361 91.75 394.47C92.0311 395.526 92.5707 396.495 93.32 397.29C94.8276 398.892 96.6578 400.157 98.69 401C100.685 401.835 102.763 402.455 104.89 402.85C106.973 403.244 109.082 403.481 111.2 403.56C115.279 403.768 119.366 403.394 123.34 402.45C125.238 401.987 127.079 401.317 128.83 400.45C130.525 399.642 132.042 398.503 133.29 397.1C133.873 396.412 134.318 395.617 134.6 394.76C134.81 393.893 134.884 392.999 134.82 392.11V386.79C134.82 383.32 134.82 379.98 134.82 376.79C134.82 364.07 134.88 353.79 134.9 346.63C134.92 339.47 134.99 335.57 134.99 335.57C135.02 335.812 135.02 336.058 134.99 336.3C134.99 336.8 134.99 337.51 134.99 338.43C134.99 340.32 134.99 343.08 134.99 346.63C134.99 353.77 134.99 364.07 135.07 376.79C135.07 379.97 135.07 383.31 135.07 386.79V393.47C135.057 393.947 134.983 394.421 134.85 394.88C134.555 395.794 134.083 396.64 133.46 397.37C132.181 398.826 130.619 400.007 128.87 400.84C127.091 401.707 125.224 402.377 123.3 402.84C119.334 403.79 115.254 404.18 111.18 404C109.038 403.926 106.906 403.688 104.8 403.29C102.636 402.887 100.521 402.257 98.49 401.41C96.3851 400.562 94.4885 399.269 92.93 397.62C92.1236 396.778 91.5424 395.746 91.24 394.62C91.0616 393.473 91.0013 392.31 91.06 391.15V338.48C91.06 337.16 91.06 335.88 91.06 334.55C91.1811 333.24 91.4632 331.951 91.9 330.71C92.7859 328.304 93.9469 326.009 95.36 323.87C96.7 321.74 98.17 319.73 99.58 317.74C100.873 315.74 101.779 313.515 102.25 311.18C102.732 308.918 102.99 306.613 103.02 304.3L103.25 304.53C102.679 304.581 102.103 304.504 101.566 304.305C101.028 304.106 100.541 303.79 100.14 303.38C99.7407 302.952 99.4854 302.41 99.41 301.83C99.41 301.24 99.41 300.75 99.41 300.21C99.3806 299.674 99.3806 299.136 99.41 298.6C99.5137 298.038 99.7817 297.52 100.18 297.11C100.575 296.728 101.047 296.434 101.564 296.248C102.081 296.061 102.632 295.987 103.18 296.03H114.99H123.24C124.17 295.995 125.08 296.301 125.8 296.89C126.149 297.184 126.421 297.557 126.596 297.978C126.77 298.399 126.84 298.856 126.8 299.31C126.8 300.17 126.8 300.96 126.8 301.83C126.73 302.257 126.566 302.663 126.321 303.019C126.075 303.375 125.754 303.673 125.38 303.89C124.666 304.304 123.843 304.492 123.02 304.43L123.18 304.27C123.27 309.54 124.29 314.42 126.67 317.88C128.81 320.75 130.761 323.756 132.51 326.88C133.609 328.856 134.391 330.992 134.83 333.21C134.926 333.802 134.983 334.4 135 335C135.035 335.192 135.035 335.388 135 335.58V335.58Z" fill="#263238"/>
<path d="M121.88 304.15C118.848 304.414 115.802 304.5 112.76 304.41C109.714 304.5 106.666 304.413 103.63 304.15C106.666 303.893 109.714 303.806 112.76 303.89C115.802 303.806 118.847 303.892 121.88 304.15Z" fill="#263238"/>
<path d="M133.18 343.29C131.34 342.09 128.91 342.62 126.93 343.56C124.95 344.5 123.08 345.81 120.93 346.15C118.4 346.56 115.85 345.55 113.6 344.28C111.35 343.01 109.22 341.44 106.8 340.57C104.453 339.777 101.93 339.658 99.519 340.227C97.1078 340.796 94.9046 342.031 93.16 343.79V393.33C93.16 393.33 95.88 401.78 115.04 400.46C134.2 399.14 132.69 390.67 132.69 390.67L133.18 343.29Z" fill="#FFC100"/>
<path d="M82.42 309.57C82.7034 307.741 82.6215 305.875 82.1791 304.078C81.7366 302.281 80.9424 300.59 79.8423 299.102C78.7423 297.615 77.3581 296.36 75.77 295.41C74.1819 294.46 72.4213 293.835 70.59 293.57C70.2544 293.483 69.8987 293.523 69.59 293.68C69.18 293.96 69.17 294.55 69.21 295.04C69.545 298.614 71.0025 301.989 73.3737 304.684C75.7448 307.379 78.908 309.253 82.41 310.04" fill="#455A64"/>
<path d="M62.75 335.48C66.29 342.78 71.38 347.7 77.69 347.94C78.95 347.94 79.9 347.15 81.1 347.08C81.7977 347.243 82.4704 347.498 83.1 347.84C83.4163 347.979 83.755 348.061 84.1 348.08C90.62 347.73 96.17 343.15 99.91 335.48C105.12 324.75 103.51 313.22 96.32 309.71C95.3764 309.239 94.3925 308.855 93.38 308.56C92.2168 308.247 91.0141 308.106 89.81 308.14C87.0302 308.338 84.2979 308.966 81.71 310L81.36 310.13C75.51 307.55 70.85 307.53 66.36 309.72C59.13 313.22 57.53 324.75 62.75 335.48Z" fill="#FFC100"/>
<path d="M62.87 324.61C62.5288 323.937 62.3248 323.203 62.27 322.45C62.0573 320.634 62.2771 318.793 62.9114 317.077C63.5457 315.362 64.5767 313.821 65.92 312.58C66.45 312.043 67.0825 311.618 67.78 311.33C67.78 311.41 67.12 311.87 66.17 312.84C64.956 314.11 64.0135 315.614 63.4 317.26C62.7913 318.909 62.5325 320.666 62.64 322.42C62.72 323.76 63 324.58 62.87 324.61Z" fill="#FAFAFA"/>
<path d="M64.2 329.71C64.06 329.71 63.82 329.24 63.67 328.58C63.52 327.92 63.51 327.37 63.67 327.34C63.83 327.31 64.04 327.81 64.2 328.47C64.36 329.13 64.34 329.68 64.2 329.71Z" fill="#FAFAFA"/>
<path d="M97.28 292C97.28 292.09 95.94 292.61 93.91 293.83C92.7289 294.541 91.6055 295.343 90.55 296.23C89.2659 297.326 88.0782 298.531 87 299.83C85.9434 301.148 85.0001 302.553 84.18 304.03C83.5227 305.241 82.961 306.502 82.5 307.8C81.71 310.02 81.5 311.48 81.37 311.46C81.3703 311.124 81.4072 310.788 81.48 310.46C81.529 310.058 81.6092 309.66 81.72 309.27C81.8354 308.743 81.9789 308.222 82.15 307.71C82.5707 306.372 83.1095 305.073 83.76 303.83C85.3583 300.771 87.5672 298.072 90.25 295.9C91.3391 295.012 92.5073 294.225 93.74 293.55C94.25 293.24 94.74 293.03 95.18 292.82C95.5425 292.639 95.9167 292.482 96.3 292.35C96.6116 292.195 96.9406 292.077 97.28 292V292Z" fill="#263238"/>
<path d="M41.6 315.3L30.27 458.22L135.87 483.75C135.87 483.75 172.71 471.26 173.21 470.41C173.71 469.56 173.85 322.41 173.85 322.41L135.78 332.28L41.6 315.3Z" fill="#FFC100"/>
<g opacity="0.4">
<path opacity="0.4" d="M41.6 315.3L30.27 458.22L135.87 483.75C135.87 483.75 172.71 471.26 173.21 470.41C173.71 469.56 173.85 322.41 173.85 322.41L135.78 332.28L41.6 315.3Z" fill="black"/>
</g>
<path d="M207.23 148.82L201.34 232.23C200.877 238.793 197.943 244.937 193.129 249.422C188.315 253.908 181.98 256.401 175.4 256.4V256.4C171.838 256.408 168.312 255.683 165.041 254.272C161.771 252.86 158.825 250.791 156.387 248.194C153.949 245.597 152.071 242.526 150.869 239.173C149.667 235.819 149.167 232.255 149.4 228.7C149.92 220.76 150.4 214.25 150.4 214.25C150.4 214.25 130.21 211.11 129.96 190.92C129.82 179.26 131.83 152.8 133.55 132.53C134.115 125.909 137.148 119.743 142.047 115.254C146.947 110.766 153.355 108.284 160 108.3H172.19C177.175 108.593 182.051 109.882 186.53 112.091C191.008 114.3 194.999 117.384 198.265 121.162C201.532 124.939 204.008 129.333 205.548 134.083C207.088 138.834 207.66 143.845 207.23 148.82V148.82Z" fill="#FFBE9D"/>
<path d="M150.44 214.25C150.44 214.25 163.17 215 176.73 206.48C176.73 206.48 170.23 221.17 150.08 219.35L150.44 214.25Z" fill="#EB996E"/>
<path d="M137.38 153.35C137.74 153.73 139.92 152.11 143.03 152.12C146.14 152.13 148.4 153.68 148.74 153.3C148.9 153.13 148.54 152.46 147.55 151.73C146.206 150.805 144.611 150.313 142.98 150.32C141.365 150.322 139.792 150.829 138.48 151.77C137.53 152.51 137.21 153.19 137.38 153.35Z" fill="#263238"/>
<path d="M171 156.92C170.997 157.671 171.285 158.393 171.803 158.936C172.322 159.478 173.03 159.799 173.78 159.83C174.149 159.861 174.52 159.818 174.872 159.704C175.224 159.589 175.549 159.406 175.829 159.163C176.108 158.921 176.337 158.625 176.5 158.293C176.663 157.961 176.759 157.599 176.78 157.23C176.788 156.478 176.502 155.753 175.983 155.209C175.463 154.665 174.752 154.346 174 154.32C173.631 154.287 173.259 154.329 172.907 154.443C172.554 154.557 172.228 154.741 171.948 154.983C171.668 155.226 171.44 155.523 171.277 155.855C171.114 156.188 171.02 156.55 171 156.92Z" fill="#263238"/>
<path d="M140.18 156.92C140.174 157.671 140.461 158.395 140.98 158.938C141.499 159.482 142.209 159.801 142.96 159.83C143.329 159.863 143.701 159.821 144.053 159.707C144.406 159.593 144.732 159.409 145.012 159.167C145.292 158.924 145.52 158.627 145.683 158.295C145.846 157.962 145.94 157.6 145.96 157.23C145.971 156.479 145.687 155.754 145.169 155.21C144.651 154.665 143.941 154.346 143.19 154.32C142.82 154.284 142.447 154.324 142.092 154.437C141.738 154.55 141.41 154.733 141.129 154.976C140.848 155.219 140.618 155.517 140.455 155.851C140.292 156.185 140.199 156.549 140.18 156.92Z" fill="#263238"/>
<path d="M167.57 153.36C167.93 153.73 170.12 152.11 173.22 152.12C176.32 152.13 178.59 153.68 178.93 153.3C179.09 153.13 178.73 152.46 177.74 151.73C176.396 150.805 174.801 150.313 173.17 150.32C171.555 150.322 169.982 150.829 168.67 151.77C167.72 152.51 167.4 153.19 167.57 153.36Z" fill="#263238"/>
<path d="M156.31 176.36C156.31 176.19 154.4 175.86 151.31 175.46C150.52 175.37 149.77 175.22 149.64 174.68C149.568 173.862 149.75 173.041 150.16 172.33L152.51 166.33C155.76 157.74 158.12 150.68 157.77 150.55C157.42 150.42 154.5 157.28 151.25 165.87C150.417 167.957 149.667 169.967 149 171.9C148.509 172.858 148.364 173.957 148.59 175.01C148.706 175.29 148.884 175.54 149.111 175.741C149.338 175.942 149.608 176.089 149.9 176.17C150.337 176.289 150.787 176.353 151.24 176.36C154.35 176.53 156.3 176.54 156.31 176.36Z" fill="#263238"/>
<path d="M165.44 178.51C164.94 178.51 164.93 181.85 162.05 184.24C159.17 186.63 155.58 186.24 155.55 186.73C155.55 186.94 156.35 187.38 157.87 187.43C159.842 187.455 161.761 186.786 163.29 185.54C164.754 184.336 165.696 182.612 165.92 180.73C166.05 179.33 165.67 178.49 165.44 178.51Z" fill="#263238"/>
<path d="M166.77 143.27C167.08 144.11 170.17 143.71 173.77 144.15C177.37 144.59 180.36 145.58 180.84 144.83C181.06 144.47 180.54 143.67 179.36 142.83C177.782 141.815 175.987 141.188 174.12 141C172.258 140.774 170.368 140.997 168.61 141.65C167.31 142.21 166.64 142.87 166.77 143.27Z" fill="#263238"/>
<path d="M137.81 144.47C138.36 145.18 140.5 144.47 143.07 144.41C145.64 144.35 147.81 144.89 148.32 144.15C148.53 143.79 148.19 143.08 147.24 142.42C145.964 141.617 144.477 141.213 142.97 141.259C141.463 141.306 140.004 141.8 138.78 142.68C137.87 143.4 137.57 144.13 137.81 144.47Z" fill="#263238"/>
<path d="M200.42 164C200.77 163.85 214.3 159.9 213.86 173.7C213.42 187.5 199.65 184.21 199.64 183.82C199.63 183.43 200.42 164 200.42 164Z" fill="#FFBE9D"/>
<path d="M204 178.69C204.06 178.69 204.24 178.87 204.64 179.07C205.202 179.331 205.844 179.363 206.43 179.16C207.91 178.67 209.21 176.4 209.35 173.91C209.429 172.729 209.238 171.546 208.79 170.45C208.674 170.014 208.455 169.612 208.15 169.28C207.845 168.947 207.464 168.693 207.04 168.54C206.765 168.458 206.471 168.475 206.207 168.588C205.944 168.701 205.729 168.904 205.6 169.16C205.4 169.54 205.48 169.82 205.41 169.84C205.34 169.86 205.12 169.6 205.25 169.03C205.342 168.692 205.542 168.393 205.82 168.18C206.209 167.905 206.69 167.794 207.16 167.87C207.723 168.002 208.243 168.275 208.672 168.663C209.101 169.052 209.423 169.543 209.61 170.09C210.156 171.307 210.399 172.638 210.32 173.97C210.14 176.75 208.63 179.3 206.62 179.82C206.245 179.915 205.854 179.924 205.475 179.848C205.096 179.772 204.739 179.612 204.43 179.38C204 179 204 178.72 204 178.69Z" fill="#EB996E"/>
<path d="M208.1 163.5C206 162.99 202.36 164.94 201.46 166.91C200.56 168.88 200.36 171.11 199.46 173.08C198.56 175.05 196.54 176.84 194.46 176.34C193.746 176.115 193.105 175.705 192.601 175.152C192.096 174.598 191.748 173.922 191.59 173.19C191.3 171.721 191.3 170.209 191.59 168.74C192.4 162.29 193.75 155.9 194.01 149.41C194.27 142.92 193.35 136.17 189.94 130.64C186.53 125.11 180.27 121.04 173.79 121.56C169.5 121.91 165.57 124.15 161.31 124.74C158.775 125.076 156.197 124.829 153.771 124.02C151.345 123.211 149.136 121.86 147.31 120.07C146.84 119.61 144.69 118.18 144.69 118.18C144.69 117.85 145 114.97 146.14 113.92C154.59 106.1 169.83 103.92 181 106.73C192.17 109.54 202.64 117.42 207.44 127.89C212.24 138.36 210.82 152.89 208.17 163.5" fill="#263238"/>
<path d="M131.38 128.89C133.19 133.08 137.81 135.52 142.38 135.98C146.95 136.44 151.46 135.26 155.85 133.98C160.24 132.7 172.03 130.78 176.6 130.92C177.28 130.92 178.1 130.92 178.47 130.35C178.95 129.58 178.18 128.65 177.47 128.1C171.47 123.38 156.9 120.49 149.26 120.17C141.62 119.85 133.61 123.17 129.47 129.56" fill="#263238"/>
<path d="M133.37 129.41C133.37 129.41 186.37 112.41 209.25 158.2C209.25 158.2 212.67 146.73 212.67 140.58C212.67 136.48 210.22 112.02 185.06 104.33C185.06 104.33 147.15 89.87 133.37 129.41Z" fill="#FFC100"/>
<g opacity="0.4">
<path opacity="0.4" d="M133.37 129.41C137.776 124.77 143.817 122.03 150.21 121.77C165.84 121.07 195.08 129.86 209.21 158.2C209.21 158.2 212.63 146.73 212.63 140.58C212.63 136.48 210.18 112.02 185.02 104.33C185.06 104.33 147.15 89.87 133.37 129.41Z" fill="black"/>
</g>
<path d="M207 152.83C198.966 140.869 188.439 130.788 176.14 123.28C164 115.67 143.87 108.15 130 104.46C125.84 103.36 121.5 102.39 117.25 103.13C113 103.87 108.84 106.69 107.79 110.87C106.47 116.1 115.79 124.17 120.12 127.34C124.394 130.189 128.821 132.803 133.38 135.17C133.38 135.17 133.26 125.47 148.79 123.47C169.9 120.75 207 152.83 207 152.83Z" fill="#FFC100"/>
<path d="M163.6 113.25C163.6 113.25 155.96 109.03 148.3 108.05C149.576 107.044 150.973 106.204 152.46 105.55C156.621 106.24 160.645 107.59 164.38 109.55L163.6 113.25Z" fill="#FAFAFA"/>
<path d="M230.14 250.84C230.14 250.84 215.66 267.39 217.26 290.42C217.48 293.61 217.64 298.06 218.03 301.24C220.47 321 224.25 339.34 224.25 339.34H225.63L276.12 326.87C276.12 326.87 268.51 283.04 266.76 277.22C261.17 258.59 242 248.34 242 248.34L230.14 250.84Z" fill="#FFC100"/>
<path d="M173.21 470.41C173.21 470.41 173.21 470.16 173.21 469.67C173.21 469.18 173.21 468.43 173.21 467.47C173.21 465.53 173.21 462.69 173.21 459.02C173.21 451.65 173.21 441.02 173.27 427.7C173.36 401.11 173.49 364.11 173.64 322.38L173.96 322.63L154.76 327.63L135.9 332.52L136.09 332.27C136.35 353.19 136.28 372.93 136.18 390.77C136.08 408.61 135.98 424.54 135.9 437.86C135.82 451.18 135.9 461.86 135.9 469.26C135.9 472.94 135.9 475.79 135.9 477.74V479.94C135.9 480.43 135.9 480.68 135.9 480.68C135.9 480.68 135.9 480.43 135.9 479.94C135.9 479.45 135.9 478.7 135.9 477.74C135.9 475.74 135.83 472.94 135.77 469.26C135.68 461.89 135.62 451.18 135.63 437.86C135.64 424.54 135.74 408.6 135.8 390.77C135.86 372.94 135.92 353.19 135.65 332.28V332.07L135.85 332.02L154.7 327.13L173.91 322.13L174.24 322.04V322.38C174.02 364.11 173.83 401.12 173.7 427.7C173.61 440.98 173.53 451.65 173.48 459.02C173.48 462.69 173.42 465.53 173.4 467.47C173.4 468.47 173.4 469.16 173.4 469.67C173.4 470.18 173.21 470.41 173.21 470.41Z" fill="#263238"/>
<path d="M149.83 221.08C149.83 221.08 147.83 240.29 154.29 243.28C161.58 246.64 168.85 243.35 173.29 240.5C185.2 232.9 202.9 211.79 202.9 211.79L214.9 227.37C214.9 227.37 184.68 263.69 178.61 263.45C174.61 263.3 168.46 259.45 164.61 256.74C162.503 255.268 160.626 253.492 159.04 251.47L153.81 244.82C147.28 248.04 142 252.17 138.35 257.46C138.35 257.46 136.61 244.01 139.74 237.91C142.87 231.81 149.11 221.28 149.11 221.28L149.83 221.08Z" fill="#FFC100"/>
<path d="M139.37 238.43C139.346 238.545 139.305 238.656 139.25 238.76C139.16 239 139.03 239.31 138.86 239.7C138.445 240.943 138.147 242.222 137.97 243.52C137.389 248.302 137.389 253.138 137.97 257.92L137.61 257.85C139.292 255.008 141.49 252.506 144.09 250.47C147.034 248.077 150.249 246.04 153.67 244.4L153.83 244.32L153.95 244.46C156.06 246.91 158.29 249.46 160.64 252.05C162.99 254.763 165.637 257.205 168.53 259.33C169.912 260.309 171.414 261.105 173 261.7C173.78 261.984 174.583 262.201 175.4 262.35C176.2 262.48 177.013 262.51 177.82 262.44C181.07 262.14 183.82 260.28 186.1 258.32L206.79 236.26L212.79 229.93L214.4 228.26L214.82 227.83L214.98 227.7L214.86 227.86L214.46 228.32L212.91 230.04L207.01 236.47L186.47 258.65C185.285 259.705 183.991 260.63 182.61 261.41C181.164 262.23 179.564 262.741 177.91 262.91C177.056 262.98 176.197 262.95 175.35 262.82C174.502 262.671 173.669 262.447 172.86 262.15C171.226 261.539 169.677 260.722 168.25 259.72C165.315 257.575 162.632 255.106 160.25 252.36C157.89 249.76 155.66 247.2 153.56 244.74L153.85 244.8C150.462 246.426 147.274 248.44 144.35 250.8C141.813 252.793 139.661 255.233 138 258L137.7 258.52L137.64 257.93C137.081 253.116 137.135 248.251 137.8 243.45C138.005 242.15 138.34 240.873 138.8 239.64C138.98 239.22 139.14 238.92 139.24 238.71C139.277 238.614 139.321 238.52 139.37 238.43Z" fill="#263238"/>
<g opacity="0.3">
<path opacity="0.3" d="M140.11 254.62C139.908 255.124 139.871 255.679 140.004 256.205C140.137 256.732 140.433 257.202 140.85 257.55C141.267 257.71 141.719 257.752 142.158 257.673C142.597 257.594 143.006 257.395 143.34 257.1C143.995 256.5 144.561 255.81 145.02 255.05C146.216 253.326 147.654 251.784 149.29 250.47C150.9 249.17 153.11 248.07 154.96 248.99C156.117 249.754 156.994 250.874 157.46 252.18C159.97 257.31 162.98 262.53 167.89 265.46C172.8 268.39 179.11 268.52 184.52 266.61C189.898 264.516 194.63 261.043 198.24 256.54C201.822 252.05 204.997 247.252 207.73 242.2C209.99 238.29 212.28 234.26 212.98 229.8C212.36 230.15 210.9 232.4 210.28 232.75C210.28 232.75 186.97 258.42 184.78 259.75C182.59 261.08 176.55 269.94 159.44 250.75L153.78 244.61C153.78 244.61 143 249.84 140.11 254.62Z" fill="black"/>
</g>
<path d="M202.542 310.003L176.912 306.072L175.725 313.811L201.355 317.742L202.542 310.003Z" fill="white"/>
<path d="M271.88 327.84L231.88 337.51L236.5 375.24L159.9 432.77C156.84 433.2 153.7 433.69 151.96 434.13C147.77 435.13 140.37 445.68 138.28 446.73L123.35 458.25C123.35 458.25 122.04 463.49 128.85 462.44C135.66 461.39 143.25 456.16 144.04 456.16C144.83 456.16 147.21 457.75 146.04 461.16C145.04 464.16 140.94 474.48 140.94 474.48L135.87 483.78C135.87 483.78 157.79 484.5 163.87 476.37C168.03 470.85 180.87 455.2 180.87 455.2C180.87 455.2 271.04 410.84 276.45 401.55C283.82 388.91 271.88 327.84 271.88 327.84Z" fill="#FFBE9D"/>
<path d="M253.44 391.5C253.494 390.124 253.434 388.746 253.26 387.38C252.776 384.081 251.159 381.054 248.687 378.817C246.214 376.58 243.041 375.273 239.71 375.12C238.333 375.082 236.955 375.159 235.59 375.35C235.932 375.187 236.296 375.076 236.67 375.02C237.675 374.807 238.703 374.716 239.73 374.75C243.177 374.807 246.485 376.114 249.04 378.428C251.595 380.742 253.223 383.906 253.62 387.33C253.744 388.35 253.744 389.38 253.62 390.4C253.614 390.773 253.553 391.144 253.44 391.5V391.5Z" fill="#EB996E"/>
<path d="M153.88 469.69C153.802 470.547 153.627 471.392 153.36 472.21C152.848 474.233 152.103 476.189 151.14 478.04C150.181 479.933 148.721 481.528 146.92 482.65C146.37 482.978 145.773 483.221 145.15 483.37C144.925 483.448 144.686 483.472 144.45 483.44C145.239 483.137 146.002 482.769 146.73 482.34C148.415 481.172 149.788 479.61 150.73 477.79C151.652 475.964 152.412 474.06 153 472.1C153.223 471.273 153.517 470.466 153.88 469.69V469.69Z" fill="#EB996E"/>
<path d="M164.5 466.2C164.349 467.04 164.09 467.856 163.73 468.63C162.977 470.544 162.102 472.408 161.11 474.21C160.114 476.012 159.006 477.749 157.79 479.41C157.329 480.142 156.778 480.814 156.15 481.41C156.536 480.651 156.984 479.925 157.49 479.24C158.35 477.93 159.49 476.09 160.65 474C161.81 471.91 162.74 470 163.39 468.53C163.692 467.723 164.063 466.943 164.5 466.2Z" fill="#EB996E"/>
<path d="M164.21 400.9C164.319 401.318 164.379 401.748 164.39 402.18C164.48 403 164.55 404.18 164.59 405.67C164.778 413.388 163.662 421.083 161.29 428.43C160.83 429.83 160.43 430.96 160.11 431.72C159.973 432.127 159.796 432.519 159.58 432.89C159.647 432.465 159.761 432.049 159.92 431.65C160.18 430.87 160.53 429.73 160.92 428.32C161.994 424.645 162.809 420.899 163.36 417.11C163.901 413.32 164.182 409.498 164.2 405.67C164.2 404.2 164.2 403.01 164.2 402.19C164.163 401.761 164.166 401.329 164.21 400.9V400.9Z" fill="#263238"/>
<path d="M142.54 412.91C143.026 413.932 143.447 414.984 143.8 416.06C144.54 418.06 145.57 420.72 146.8 423.67C148.03 426.62 149.17 429.27 150.02 431.18C150.521 432.195 150.958 433.241 151.33 434.31C150.685 433.367 150.136 432.362 149.69 431.31C148.75 429.43 147.54 426.8 146.32 423.84C145.1 420.88 144.13 418.15 143.48 416.15C143.068 415.101 142.753 414.017 142.54 412.91V412.91Z" fill="#263238"/>
<path d="M136.73 438.8C136.528 438.886 136.317 438.947 136.1 438.98L134.27 439.42C133.47 439.61 132.5 439.83 131.35 440.02C130.2 440.21 128.91 440.49 127.45 440.67C125.99 440.85 124.45 441.1 122.7 441.25C120.95 441.4 119.14 441.53 117.21 441.64C108.804 442.013 100.383 441.371 92.13 439.73C90.24 439.32 88.43 438.96 86.77 438.5C85.11 438.04 83.56 437.64 82.16 437.21C80.76 436.78 79.5 436.35 78.4 435.98C77.3 435.61 76.4 435.25 75.61 434.98L73.86 434.28C73.6536 434.201 73.4531 434.108 73.26 434C73.4805 434.031 73.6957 434.092 73.9 434.18L75.68 434.79C76.44 435.07 77.39 435.41 78.49 435.79C79.59 436.17 80.85 436.57 82.26 436.94C83.67 437.31 85.2 437.78 86.87 438.16C88.54 438.54 90.33 438.95 92.22 439.34C96.332 440.107 100.481 440.661 104.65 441C108.823 441.299 113.009 441.38 117.19 441.24C119.12 441.14 120.95 441.07 122.66 440.9C124.37 440.73 125.95 440.57 127.4 440.39C128.85 440.21 130.15 439.99 131.3 439.81C132.45 439.63 133.43 439.46 134.23 439.3L136.08 438.96C136.29 438.882 136.508 438.828 136.73 438.8V438.8Z" fill="#263238"/>
<path d="M132.92 421.41C131.265 420.805 129.674 420.038 128.17 419.12C126.586 418.352 125.08 417.434 123.67 416.38C125.328 416.978 126.92 417.745 128.42 418.67C130.008 419.431 131.515 420.349 132.92 421.41Z" fill="#263238"/>
<path d="M276.12 326.87L275.87 326.95L275.13 327.15L272.27 327.88L261.51 330.54L224.31 339.54L224.04 339.6V339.33C222.99 332.46 221.55 325.05 220.16 317.33C219.25 312.18 218.46 307.13 217.92 302.23C217.38 297.33 217.14 292.56 217.07 288.02C216.96 283.723 217.211 279.425 217.82 275.17C218.362 271.447 219.468 267.829 221.1 264.44C222.497 261.663 224.364 259.149 226.62 257.01C228.317 255.393 230.266 254.062 232.39 253.07C233.741 252.466 235.157 252.02 236.61 251.74L237.75 251.6C237.88 251.587 238.01 251.587 238.14 251.6C238.013 251.641 237.883 251.668 237.75 251.68L236.63 251.88C235.198 252.189 233.806 252.658 232.48 253.28C230.394 254.306 228.484 255.656 226.82 257.28C224.617 259.416 222.794 261.912 221.43 264.66C219.843 268.024 218.771 271.607 218.25 275.29C217.663 279.527 217.429 283.805 217.55 288.08C217.63 292.6 217.89 297.34 218.43 302.23C218.97 307.12 219.77 312.16 220.68 317.3C222.06 325.01 223.49 332.43 224.54 339.3L224.23 339.09L261.48 330.24L272.27 327.72L275.15 327.07L275.9 326.91C275.972 326.89 276.046 326.876 276.12 326.87V326.87Z" fill="#263238"/>
</svg>
