<svg width="92" height="227" viewBox="0 0 92 227" fill="none" xmlns="http://www.w3.org/2000/svg">
<path d="M68.1703 26.14C68.1703 26.14 68.1704 20.46 60.1704 12.5C52.1704 4.54 47.1003 0 47.1003 0C47.1003 0 43.1003 13.07 50.5103 21C55.9451 26.5993 61.839 31.7339 68.1303 36.35L68.1703 26.14Z" fill="#2F855A"/>
<path d="M56.6203 61.63C56.6203 61.63 56.6203 55.95 48.6203 47.99C40.6203 40.03 35.5503 35.49 35.5503 35.49C35.5503 35.49 31.5503 48.56 38.9603 56.49C44.3968 62.0845 50.2906 67.2156 56.5803 71.83L56.6203 61.63Z" fill="#2F855A"/>
<path d="M67.6703 35.82C67.6703 35.82 68.2703 30.17 77.0203 23.1C85.7703 16.03 91.3403 12.04 91.3403 12.04C91.3403 12.04 93.9103 25.46 85.7303 32.59C79.737 37.585 73.3345 42.0674 66.5903 45.99L67.6703 35.82Z" fill="#2F855A"/>
<path d="M53.7204 77.77C53.7204 77.77 54.9104 72.21 64.3604 66.1C73.8104 59.99 79.7604 56.61 79.7604 56.61C79.7604 56.61 80.9104 70.22 72.0204 76.46C65.5316 80.7947 58.691 84.5779 51.5704 87.77L53.7204 77.77Z" fill="#2F855A"/>
<path d="M56.3403 123.44C56.3403 123.44 56.3403 117.75 64.3403 109.8C72.3403 101.85 77.4103 97.29 77.4103 97.29C77.4103 97.29 81.4104 110.37 74.0004 118.29C68.5541 123.901 62.6467 129.046 56.3403 133.67V123.44Z" fill="#2F855A"/>
<path d="M56.2104 134.59C56.2104 134.59 57.0204 128.97 50.2704 119.96C43.5204 110.95 39.1104 105.77 39.1104 105.77C39.1104 105.77 33.3104 118.14 39.5004 127.07C44.0824 133.384 49.1834 139.305 54.7504 144.77L56.2104 134.59Z" fill="#2F855A"/>
<path d="M48.3604 167.65C48.3604 167.65 48.3604 161.97 56.3604 154.01C64.3604 146.05 69.4304 141.51 69.4304 141.51C69.4304 141.51 73.4304 154.58 66.0204 162.51C60.5839 168.104 54.6901 173.236 48.4004 177.85L48.3604 167.65Z" fill="#2F855A"/>
<path d="M53.6704 197.62C53.6704 197.62 52.2404 192.13 57.9204 182.41C63.6004 172.69 67.4004 167.01 67.4004 167.01C67.4004 167.01 74.5604 178.65 69.4004 188.21C65.5631 195.002 61.1644 201.461 56.2504 207.52L53.6704 197.62Z" fill="#2F855A"/>
<path d="M68.8904 24.68C68.4835 30.5984 67.7557 36.4904 66.7104 42.33C63.5604 58.58 55.7104 69.06 52.5604 83.74C49.4104 98.42 58.4404 117.33 56.0204 136.18C53.6004 155.03 46.2703 165.52 48.3603 178.1C50.4503 190.68 61.7203 225.97 61.7203 225.97" stroke="#263238" stroke-width="0.75" stroke-linecap="round" stroke-linejoin="round"/>
<path d="M67.5903 39.6L76.1603 33.02" stroke="#263238" stroke-width="0.75" stroke-linecap="round" stroke-linejoin="round"/>
<path d="M67.9903 32.02L64.4003 25.64" stroke="#263238" stroke-width="0.75" stroke-linecap="round" stroke-linejoin="round"/>
<path d="M53.0303 83.07C53.0303 83.07 60.2103 77.68 67.5903 72.3" stroke="#263238" stroke-width="0.75" stroke-linecap="round" stroke-linejoin="round"/>
<path d="M56.2403 70.85C56.2403 70.85 50.6403 60.14 43.8403 52.36" stroke="#263238" stroke-width="0.75" stroke-linecap="round" stroke-linejoin="round"/>
<path d="M56.6203 131.52C60.7211 123.967 65.8949 117.049 71.9803 110.98" stroke="#263238" stroke-width="0.75" stroke-linecap="round" stroke-linejoin="round"/>
<path d="M55.2304 139.5C53.0505 134.383 50.4482 129.455 47.4504 124.77C43.2604 118.59 42.6604 117.77 42.6604 117.77" stroke="#263238" stroke-width="0.75" stroke-linecap="round" stroke-linejoin="round"/>
<path d="M48.3604 178.1C50.183 173.581 52.3494 169.208 54.8404 165.02C57.3246 161.13 60.124 157.451 63.2104 154.02" stroke="#263238" stroke-width="0.75" stroke-linecap="round" stroke-linejoin="round"/>
<path d="M56.2703 207.52C56.2703 207.52 55.4303 200.72 58.4203 194.93C61.4103 189.14 64.8003 181.57 66.1903 178.58" stroke="#263238" stroke-width="0.75" stroke-linecap="round" stroke-linejoin="round"/>
<path d="M16.0704 102.06C16.0704 102.06 15.4504 98.5 19.5704 92.65C23.6904 86.8 26.4104 83.39 26.4104 83.39C26.4104 83.39 30.3304 91.15 26.5604 96.94C23.7624 101.043 20.6247 104.903 17.1804 108.48L16.0704 102.06Z" fill="#2F855A"/>
<path d="M27.1603 123.07C27.1603 123.07 26.5403 119.5 30.6703 113.65C34.8003 107.8 37.5103 104.39 37.5103 104.39C37.5103 104.39 41.4203 112.16 37.6503 117.95C34.8506 122.048 31.713 125.905 28.2703 129.48L27.1603 123.07Z" fill="#2F855A"/>
<path d="M17.4304 108.08C17.4304 108.08 16.4304 104.6 10.1804 101.08C3.93035 97.56 0.000350077 95.77 0.000350077 95.77C0.000350077 95.77 -0.149652 104.46 5.76035 108.05C10.0592 110.529 14.5583 112.643 19.2104 114.37L17.4304 108.08Z" fill="#2F855A"/>
<path d="M30.7304 132.85C30.7304 132.85 29.3804 129.49 22.7904 126.69C16.2004 123.89 12.1003 122.41 12.1003 122.41C12.1003 122.41 12.8603 131.07 19.1003 134.01C23.622 136.026 28.3052 137.659 33.1004 138.89L30.7304 132.85Z" fill="#2F855A"/>
<path d="M34.0403 161.77C34.0403 161.77 33.4303 158.21 27.5803 154.08C21.7303 149.95 18.0204 147.66 18.0204 147.66C18.0204 147.66 16.9503 156.29 22.4403 160.48C26.4572 163.401 30.7121 165.98 35.1604 168.19L34.0403 161.77Z" fill="#2F855A"/>
<path d="M35.3404 168.77C35.3404 168.77 34.2204 165.33 37.4704 158.95C40.7204 152.57 42.9304 148.82 42.9304 148.82C42.9304 148.82 47.9304 155.95 45.0004 162.21C42.8096 166.669 40.2508 170.937 37.3504 174.97L35.3404 168.77Z" fill="#2F855A"/>
<path d="M45.3303 197.52C45.3303 197.52 45.7403 193.93 51.3303 189.47C56.9203 185.01 60.5004 182.52 60.5004 182.52C60.5004 182.52 62.0604 191.07 56.8204 195.57C52.9753 198.713 48.8743 201.53 44.5603 203.99L45.3303 197.52Z" fill="#2F855A"/>
<path d="M43.8404 188.65C43.8404 188.65 43.2203 185.09 37.3703 180.96C31.5203 176.83 27.8404 174.54 27.8404 174.54C27.8404 174.54 26.7703 183.17 32.2603 187.36C36.2772 190.281 40.5321 192.86 44.9804 195.07L43.8404 188.65Z" fill="#2F855A"/>
<path d="M43.7703 208.03C43.7703 208.03 44.0804 204.42 39.4604 198.95C34.8404 193.48 31.8403 190.32 31.8403 190.32C31.8403 190.32 28.6203 198.39 32.8403 203.83C35.9849 207.674 39.4471 211.246 43.1903 214.51L43.7703 208.03Z" fill="#2F855A"/>
<path d="M15.4604 101.23C16.3527 104.898 17.4477 108.513 18.7404 112.06C22.4704 121.91 28.5403 127.63 32.1103 136.49C35.6803 145.35 32.1104 158.19 35.6304 169.75C39.1504 181.31 44.9304 187.09 44.9804 195.2C45.0304 203.31 41.8404 225.88 41.8404 225.88" stroke="#263238" stroke-width="0.75" stroke-linecap="round" stroke-linejoin="round"/>
<path d="M17.8904 110.44L11.8004 107.24" stroke="#263238" stroke-width="0.75" stroke-linecap="round" stroke-linejoin="round"/>
<path d="M16.8204 105.73L18.3703 101.34" stroke="#263238" stroke-width="0.75" stroke-linecap="round" stroke-linejoin="round"/>
<path d="M31.7404 136.12C31.7404 136.12 26.6504 133.52 21.4404 130.95" stroke="#263238" stroke-width="0.75" stroke-linecap="round" stroke-linejoin="round"/>
<path d="M28.2303 128.37C29.8534 124.046 31.8336 119.865 34.1503 115.87" stroke="#263238" stroke-width="0.75" stroke-linecap="round" stroke-linejoin="round"/>
<path d="M34.7504 166.89C31.3577 162.601 27.3631 158.826 22.8904 155.68" stroke="#263238" stroke-width="0.75" stroke-linecap="round" stroke-linejoin="round"/>
<path d="M36.4904 171.77C37.3001 168.322 38.3939 164.947 39.7604 161.68C41.7604 157.35 42.0104 156.78 42.0104 156.78" stroke="#263238" stroke-width="0.75" stroke-linecap="round" stroke-linejoin="round"/>
<path d="M44.7104 201.36C44.7104 201.36 48.7104 196.41 51.2604 194.56C52.7748 193.444 54.1961 192.206 55.5104 190.86" stroke="#263238" stroke-width="0.75" stroke-linecap="round" stroke-linejoin="round"/>
<path d="M44.9804 195.2C43.353 192.566 41.5242 190.062 39.5104 187.71C37.533 185.536 35.379 183.529 33.0704 181.71" stroke="#263238" stroke-width="0.75" stroke-linecap="round" stroke-linejoin="round"/>
<path d="M43.2204 214.51C43.0137 211.76 42.0745 209.115 40.5004 206.85C38.0004 203.55 35.0504 199.17 33.8504 197.44" stroke="#263238" stroke-width="0.75" stroke-linecap="round" stroke-linejoin="round"/>
</svg>
